<?xml version="1.0" encoding="UTF-8"?><svg id="b" xmlns="http://www.w3.org/2000/svg" viewBox="0 0 6121.46 2003.01"><defs><style>.d{fill:none;stroke:#575756;stroke-miterlimit:10;stroke-width:1.44px;}</style></defs><g id="c"><rect class="d" x="2060.77" y="1.34" width="2000" height="2000"/><line class="d" x1="2060.77" y1="1964.98" x2="4060.77" y2="1964.98"/><line class="d" x1="2060.77" y1="1928.61" x2="4060.77" y2="1928.61"/><line class="d" x1="2060.77" y1="1892.25" x2="4060.77" y2="1892.25"/><line class="d" x1="2060.77" y1="1855.89" x2="4060.77" y2="1855.89"/><line class="d" x1="2060.77" y1="1819.52" x2="4060.77" y2="1819.52"/><line class="d" x1="2060.77" y1="1783.16" x2="4060.77" y2="1783.16"/><line class="d" x1="2060.77" y1="1746.79" x2="4060.77" y2="1746.79"/><line class="d" x1="2060.77" y1="1710.43" x2="4060.77" y2="1710.43"/><line class="d" x1="2060.77" y1="1674.07" x2="4060.77" y2="1674.07"/><line class="d" x1="2060.77" y1="1637.7" x2="4060.77" y2="1637.7"/><line class="d" x1="2060.77" y1="1601.34" x2="4060.77" y2="1601.34"/><line class="d" x1="2060.77" y1="1564.98" x2="4060.77" y2="1564.98"/><line class="d" x1="2060.77" y1="1528.61" x2="4060.77" y2="1528.61"/><line class="d" x1="2060.77" y1="1492.25" x2="4060.77" y2="1492.25"/><line class="d" x1="2060.77" y1="1455.89" x2="4060.77" y2="1455.89"/><line class="d" x1="2060.77" y1="1419.52" x2="4060.77" y2="1419.52"/><line class="d" x1="2060.77" y1="1383.16" x2="4060.77" y2="1383.16"/><line class="d" x1="2060.77" y1="1346.79" x2="4060.77" y2="1346.79"/><line class="d" x1="2060.77" y1="1310.43" x2="4060.77" y2="1310.43"/><line class="d" x1="2060.77" y1="1274.07" x2="4060.77" y2="1274.07"/><line class="d" x1="2060.77" y1="1237.7" x2="4060.77" y2="1237.7"/><line class="d" x1="2060.77" y1="1201.34" x2="4060.77" y2="1201.34"/><line class="d" x1="2060.77" y1="1164.98" x2="4060.77" y2="1164.98"/><line class="d" x1="2060.77" y1="1128.61" x2="4060.77" y2="1128.61"/><line class="d" x1="2060.77" y1="1092.25" x2="4060.77" y2="1092.25"/><line class="d" x1="2060.77" y1="1055.89" x2="4060.77" y2="1055.89"/><line class="d" x1="2060.77" y1="1019.52" x2="4060.77" y2="1019.52"/><line class="d" x1="2060.77" y1="983.16" x2="4060.77" y2="983.16"/><line class="d" x1="2060.77" y1="946.79" x2="4060.77" y2="946.79"/><line class="d" x1="2060.77" y1="910.43" x2="4060.77" y2="910.43"/><line class="d" x1="2060.77" y1="874.07" x2="4060.77" y2="874.07"/><line class="d" x1="2060.77" y1="837.7" x2="4060.77" y2="837.7"/><line class="d" x1="2060.77" y1="801.34" x2="4060.77" y2="801.34"/><line class="d" x1="2060.77" y1="764.98" x2="4060.77" y2="764.98"/><line class="d" x1="2060.77" y1="728.61" x2="4060.77" y2="728.61"/><line class="d" x1="2060.77" y1="692.25" x2="4060.77" y2="692.25"/><line class="d" x1="2060.77" y1="655.89" x2="4060.77" y2="655.89"/><line class="d" x1="2060.77" y1="619.52" x2="4060.77" y2="619.52"/><line class="d" x1="2060.77" y1="583.16" x2="4060.77" y2="583.16"/><line class="d" x1="2060.77" y1="546.79" x2="4060.77" y2="546.79"/><line class="d" x1="2060.77" y1="510.43" x2="4060.77" y2="510.43"/><line class="d" x1="2060.77" y1="474.07" x2="4060.77" y2="474.07"/><line class="d" x1="2060.77" y1="437.7" x2="4060.77" y2="437.7"/><line class="d" x1="2060.77" y1="401.34" x2="4060.77" y2="401.34"/><line class="d" x1="2060.77" y1="364.98" x2="4060.77" y2="364.98"/><line class="d" x1="2060.77" y1="328.61" x2="4060.77" y2="328.61"/><line class="d" x1="2060.77" y1="292.25" x2="4060.77" y2="292.25"/><line class="d" x1="2060.77" y1="255.89" x2="4060.77" y2="255.89"/><line class="d" x1="2060.77" y1="219.52" x2="4060.77" y2="219.52"/><line class="d" x1="2060.77" y1="183.16" x2="4060.77" y2="183.16"/><line class="d" x1="2060.77" y1="146.79" x2="4060.77" y2="146.79"/><line class="d" x1="2060.77" y1="110.43" x2="4060.77" y2="110.43"/><line class="d" x1="2060.77" y1="74.07" x2="4060.77" y2="74.07"/><line class="d" x1="2060.77" y1="37.7" x2="4060.77" y2="37.7"/><line class="d" x1="4024.4" y1="1.34" x2="4024.4" y2="2001.34"/><line class="d" x1="3988.04" y1="1.34" x2="3988.04" y2="2001.34"/><line class="d" x1="3951.68" y1="1.34" x2="3951.68" y2="2001.34"/><line class="d" x1="3915.31" y1="1.34" x2="3915.31" y2="2001.34"/><line class="d" x1="3878.95" y1="1.34" x2="3878.95" y2="2001.34"/><line class="d" x1="3842.59" y1="1.34" x2="3842.59" y2="2001.34"/><line class="d" x1="3806.22" y1="1.34" x2="3806.22" y2="2001.34"/><line class="d" x1="3769.86" y1="1.34" x2="3769.86" y2="2001.34"/><line class="d" x1="3733.49" y1="1.34" x2="3733.49" y2="2001.34"/><line class="d" x1="3697.13" y1="1.34" x2="3697.13" y2="2001.34"/><line class="d" x1="3660.77" y1="1.34" x2="3660.77" y2="2001.34"/><line class="d" x1="3624.4" y1="1.34" x2="3624.4" y2="2001.34"/><line class="d" x1="3588.04" y1="1.34" x2="3588.04" y2="2001.34"/><line class="d" x1="3551.68" y1="1.34" x2="3551.68" y2="2001.34"/><line class="d" x1="3515.31" y1="1.34" x2="3515.31" y2="2001.34"/><line class="d" x1="3478.95" y1="1.34" x2="3478.95" y2="2001.34"/><line class="d" x1="3442.59" y1="1.34" x2="3442.59" y2="2001.34"/><line class="d" x1="3406.22" y1="1.34" x2="3406.22" y2="2001.34"/><line class="d" x1="3369.86" y1="1.34" x2="3369.86" y2="2001.34"/><line class="d" x1="3333.49" y1="1.34" x2="3333.49" y2="2001.34"/><line class="d" x1="3297.13" y1="1.34" x2="3297.13" y2="2001.34"/><line class="d" x1="3260.77" y1="1.34" x2="3260.77" y2="2001.34"/><line class="d" x1="3224.4" y1="1.34" x2="3224.4" y2="2001.34"/><line class="d" x1="3188.04" y1="1.34" x2="3188.04" y2="2001.34"/><line class="d" x1="3151.68" y1="1.34" x2="3151.68" y2="2001.34"/><line class="d" x1="3115.31" y1="1.34" x2="3115.31" y2="2001.34"/><line class="d" x1="3078.95" y1="1.34" x2="3078.95" y2="2001.34"/><line class="d" x1="3042.59" y1="1.34" x2="3042.59" y2="2001.34"/><line class="d" x1="3006.22" y1="1.34" x2="3006.22" y2="2001.34"/><line class="d" x1="2969.86" y1="1.34" x2="2969.86" y2="2001.34"/><line class="d" x1="2933.49" y1="1.34" x2="2933.49" y2="2001.34"/><line class="d" x1="2897.13" y1="1.34" x2="2897.13" y2="2001.34"/><line class="d" x1="2860.77" y1="1.34" x2="2860.77" y2="2001.34"/><line class="d" x1="2824.4" y1="1.34" x2="2824.4" y2="2001.34"/><line class="d" x1="2788.04" y1="1.34" x2="2788.04" y2="2001.34"/><line class="d" x1="2751.68" y1="1.34" x2="2751.68" y2="2001.34"/><line class="d" x1="2715.31" y1="1.34" x2="2715.31" y2="2001.34"/><line class="d" x1="2678.95" y1="1.34" x2="2678.95" y2="2001.34"/><line class="d" x1="2642.59" y1="1.34" x2="2642.59" y2="2001.34"/><line class="d" x1="2606.22" y1="1.34" x2="2606.22" y2="2001.34"/><line class="d" x1="2569.86" y1="1.34" x2="2569.86" y2="2001.34"/><line class="d" x1="2533.49" y1="1.34" x2="2533.49" y2="2001.34"/><line class="d" x1="2497.13" y1="1.34" x2="2497.13" y2="2001.34"/><line class="d" x1="2460.77" y1="1.34" x2="2460.77" y2="2001.34"/><line class="d" x1="2424.4" y1="1.34" x2="2424.4" y2="2001.34"/><line class="d" x1="2388.04" y1="1.34" x2="2388.04" y2="2001.34"/><line class="d" x1="2351.68" y1="1.34" x2="2351.68" y2="2001.34"/><line class="d" x1="2315.31" y1="1.34" x2="2315.31" y2="2001.34"/><line class="d" x1="2278.95" y1="1.34" x2="2278.95" y2="2001.34"/><line class="d" x1="2242.59" y1="1.34" x2="2242.59" y2="2001.34"/><line class="d" x1="2206.22" y1="1.34" x2="2206.22" y2="2001.34"/><line class="d" x1="2169.86" y1="1.34" x2="2169.86" y2="2001.34"/><line class="d" x1="2133.49" y1="1.34" x2="2133.49" y2="2001.34"/><line class="d" x1="2097.13" y1="1.34" x2="2097.13" y2="2001.34"/><rect class="d" x="4120.74" y="1.39" width="251.14" height="251.14"/><line class="d" x1="4120.74" y1="229.69" x2="4371.88" y2="229.69"/><line class="d" x1="4120.74" y1="206.86" x2="4371.88" y2="206.86"/><line class="d" x1="4120.74" y1="184.03" x2="4371.88" y2="184.03"/><line class="d" x1="4120.74" y1="161.2" x2="4371.88" y2="161.2"/><line class="d" x1="4120.74" y1="138.37" x2="4371.88" y2="138.37"/><line class="d" x1="4120.74" y1="115.54" x2="4371.88" y2="115.54"/><line class="d" x1="4120.74" y1="92.71" x2="4371.88" y2="92.71"/><line class="d" x1="4120.74" y1="69.88" x2="4371.88" y2="69.88"/><line class="d" x1="4120.74" y1="47.05" x2="4371.88" y2="47.05"/><line class="d" x1="4120.74" y1="24.22" x2="4371.88" y2="24.22"/><line class="d" x1="4349.04" y1="1.39" x2="4349.04" y2="252.53"/><line class="d" x1="4326.21" y1="1.39" x2="4326.21" y2="252.53"/><line class="d" x1="4303.38" y1="1.39" x2="4303.38" y2="252.53"/><line class="d" x1="4280.55" y1="1.39" x2="4280.55" y2="252.53"/><line class="d" x1="4257.72" y1="1.39" x2="4257.72" y2="252.53"/><line class="d" x1="4234.89" y1="1.39" x2="4234.89" y2="252.53"/><line class="d" x1="4212.06" y1="1.39" x2="4212.06" y2="252.53"/><line class="d" x1="4189.23" y1="1.39" x2="4189.23" y2="252.53"/><line class="d" x1="4166.4" y1="1.39" x2="4166.4" y2="252.53"/><line class="d" x1="4143.57" y1="1.39" x2="4143.57" y2="252.53"/><rect class="d" x="4470.51" y="1.39" width="251.14" height="251.14"/><line class="d" x1="4470.51" y1="229.69" x2="4721.65" y2="229.69"/><line class="d" x1="4470.51" y1="206.86" x2="4721.65" y2="206.86"/><line class="d" x1="4470.51" y1="184.03" x2="4721.65" y2="184.03"/><line class="d" x1="4470.51" y1="161.2" x2="4721.65" y2="161.2"/><line class="d" x1="4470.51" y1="138.37" x2="4721.65" y2="138.37"/><line class="d" x1="4470.51" y1="115.54" x2="4721.65" y2="115.54"/><line class="d" x1="4470.51" y1="92.71" x2="4721.65" y2="92.71"/><line class="d" x1="4470.51" y1="69.88" x2="4721.65" y2="69.88"/><line class="d" x1="4470.51" y1="47.05" x2="4721.65" y2="47.05"/><line class="d" x1="4470.51" y1="24.22" x2="4721.65" y2="24.22"/><line class="d" x1="4698.82" y1="1.39" x2="4698.82" y2="252.53"/><line class="d" x1="4675.99" y1="1.39" x2="4675.99" y2="252.53"/><line class="d" x1="4653.16" y1="1.39" x2="4653.16" y2="252.53"/><line class="d" x1="4630.32" y1="1.39" x2="4630.32" y2="252.53"/><line class="d" x1="4607.49" y1="1.39" x2="4607.49" y2="252.53"/><line class="d" x1="4584.66" y1="1.39" x2="4584.66" y2="252.53"/><line class="d" x1="4561.83" y1="1.39" x2="4561.83" y2="252.53"/><line class="d" x1="4539" y1="1.39" x2="4539" y2="252.53"/><line class="d" x1="4516.17" y1="1.39" x2="4516.17" y2="252.53"/><line class="d" x1="4493.34" y1="1.39" x2="4493.34" y2="252.53"/><rect class="d" x="4820.28" y=".82" width="251.14" height="251.14"/><line class="d" x1="4820.28" y1="229.13" x2="5071.42" y2="229.13"/><line class="d" x1="4820.28" y1="206.3" x2="5071.42" y2="206.3"/><line class="d" x1="4820.28" y1="183.47" x2="5071.42" y2="183.47"/><line class="d" x1="4820.28" y1="160.64" x2="5071.42" y2="160.64"/><line class="d" x1="4820.28" y1="137.8" x2="5071.42" y2="137.8"/><line class="d" x1="4820.28" y1="114.97" x2="5071.42" y2="114.97"/><line class="d" x1="4820.28" y1="92.14" x2="5071.42" y2="92.14"/><line class="d" x1="4820.28" y1="69.31" x2="5071.42" y2="69.31"/><line class="d" x1="4820.28" y1="46.48" x2="5071.42" y2="46.48"/><line class="d" x1="4820.28" y1="23.65" x2="5071.42" y2="23.65"/><line class="d" x1="5048.59" y1=".82" x2="5048.59" y2="251.96"/><line class="d" x1="5025.76" y1=".82" x2="5025.76" y2="251.96"/><line class="d" x1="5002.93" y1=".82" x2="5002.93" y2="251.96"/><line class="d" x1="4980.1" y1=".82" x2="4980.1" y2="251.96"/><line class="d" x1="4957.27" y1=".82" x2="4957.27" y2="251.96"/><line class="d" x1="4934.44" y1=".82" x2="4934.44" y2="251.96"/><line class="d" x1="4911.6" y1=".82" x2="4911.6" y2="251.96"/><line class="d" x1="4888.77" y1=".82" x2="4888.77" y2="251.96"/><line class="d" x1="4865.94" y1=".82" x2="4865.94" y2="251.96"/><line class="d" x1="4843.11" y1=".82" x2="4843.11" y2="251.96"/><rect class="d" x="5169.68" y=".72" width="251.14" height="251.14"/><line class="d" x1="5169.68" y1="229.03" x2="5420.82" y2="229.03"/><line class="d" x1="5169.68" y1="206.2" x2="5420.82" y2="206.2"/><line class="d" x1="5169.68" y1="183.37" x2="5420.82" y2="183.37"/><line class="d" x1="5169.68" y1="160.54" x2="5420.82" y2="160.54"/><line class="d" x1="5169.68" y1="137.7" x2="5420.82" y2="137.7"/><line class="d" x1="5169.68" y1="114.87" x2="5420.82" y2="114.87"/><line class="d" x1="5169.68" y1="92.04" x2="5420.82" y2="92.04"/><line class="d" x1="5169.68" y1="69.21" x2="5420.82" y2="69.21"/><line class="d" x1="5169.68" y1="46.38" x2="5420.82" y2="46.38"/><line class="d" x1="5169.68" y1="23.55" x2="5420.82" y2="23.55"/><line class="d" x1="5397.99" y1=".72" x2="5397.99" y2="251.86"/><line class="d" x1="5375.16" y1=".72" x2="5375.16" y2="251.86"/><line class="d" x1="5352.32" y1=".72" x2="5352.32" y2="251.86"/><line class="d" x1="5329.49" y1=".72" x2="5329.49" y2="251.86"/><line class="d" x1="5306.66" y1=".72" x2="5306.66" y2="251.86"/><line class="d" x1="5283.83" y1=".72" x2="5283.83" y2="251.86"/><line class="d" x1="5261" y1=".72" x2="5261" y2="251.86"/><line class="d" x1="5238.17" y1=".72" x2="5238.17" y2="251.86"/><line class="d" x1="5215.34" y1=".72" x2="5215.34" y2="251.86"/><line class="d" x1="5192.51" y1=".72" x2="5192.51" y2="251.86"/><rect class="d" x="5519.83" y="1.34" width="251.14" height="251.14"/><line class="d" x1="5519.83" y1="229.65" x2="5770.96" y2="229.65"/><line class="d" x1="5519.83" y1="206.82" x2="5770.96" y2="206.82"/><line class="d" x1="5519.83" y1="183.99" x2="5770.96" y2="183.99"/><line class="d" x1="5519.83" y1="161.16" x2="5770.96" y2="161.16"/><line class="d" x1="5519.83" y1="138.32" x2="5770.96" y2="138.32"/><line class="d" x1="5519.83" y1="115.49" x2="5770.96" y2="115.49"/><line class="d" x1="5519.83" y1="92.66" x2="5770.96" y2="92.66"/><line class="d" x1="5519.83" y1="69.83" x2="5770.96" y2="69.83"/><line class="d" x1="5519.83" y1="47" x2="5770.96" y2="47"/><line class="d" x1="5519.83" y1="24.17" x2="5770.96" y2="24.17"/><line class="d" x1="5748.13" y1="1.34" x2="5748.13" y2="252.48"/><line class="d" x1="5725.3" y1="1.34" x2="5725.3" y2="252.48"/><line class="d" x1="5702.47" y1="1.34" x2="5702.47" y2="252.48"/><line class="d" x1="5679.64" y1="1.34" x2="5679.64" y2="252.48"/><line class="d" x1="5656.81" y1="1.34" x2="5656.81" y2="252.48"/><line class="d" x1="5633.98" y1="1.34" x2="5633.98" y2="252.48"/><line class="d" x1="5611.15" y1="1.34" x2="5611.15" y2="252.48"/><line class="d" x1="5588.32" y1="1.34" x2="5588.32" y2="252.48"/><line class="d" x1="5565.49" y1="1.34" x2="5565.49" y2="252.48"/><line class="d" x1="5542.66" y1="1.34" x2="5542.66" y2="252.48"/><rect class="d" x="5869.6" y=".72" width="251.14" height="251.14"/><line class="d" x1="5869.6" y1="229.03" x2="6120.74" y2="229.03"/><line class="d" x1="5869.6" y1="206.2" x2="6120.74" y2="206.2"/><line class="d" x1="5869.6" y1="183.37" x2="6120.74" y2="183.37"/><line class="d" x1="5869.6" y1="160.54" x2="6120.74" y2="160.54"/><line class="d" x1="5869.6" y1="137.7" x2="6120.74" y2="137.7"/><line class="d" x1="5869.6" y1="114.87" x2="6120.74" y2="114.87"/><line class="d" x1="5869.6" y1="92.04" x2="6120.74" y2="92.04"/><line class="d" x1="5869.6" y1="69.21" x2="6120.74" y2="69.21"/><line class="d" x1="5869.6" y1="46.38" x2="6120.74" y2="46.38"/><line class="d" x1="5869.6" y1="23.55" x2="6120.74" y2="23.55"/><line class="d" x1="6097.91" y1=".72" x2="6097.91" y2="251.86"/><line class="d" x1="6075.07" y1=".72" x2="6075.07" y2="251.86"/><line class="d" x1="6052.24" y1=".72" x2="6052.24" y2="251.86"/><line class="d" x1="6029.41" y1=".72" x2="6029.41" y2="251.86"/><line class="d" x1="6006.58" y1=".72" x2="6006.58" y2="251.86"/><line class="d" x1="5983.75" y1=".72" x2="5983.75" y2="251.86"/><line class="d" x1="5960.92" y1=".72" x2="5960.92" y2="251.86"/><line class="d" x1="5938.09" y1=".72" x2="5938.09" y2="251.86"/><line class="d" x1="5915.26" y1=".72" x2="5915.26" y2="251.86"/><line class="d" x1="5892.43" y1=".72" x2="5892.43" y2="251.86"/><rect class="d" x="4120.74" y="351.45" width="251.14" height="251.14"/><line class="d" x1="4120.74" y1="579.75" x2="4371.88" y2="579.75"/><line class="d" x1="4120.74" y1="556.92" x2="4371.88" y2="556.92"/><line class="d" x1="4120.74" y1="534.09" x2="4371.88" y2="534.09"/><line class="d" x1="4120.74" y1="511.26" x2="4371.88" y2="511.26"/><line class="d" x1="4120.74" y1="488.43" x2="4371.88" y2="488.43"/><line class="d" x1="4120.74" y1="465.6" x2="4371.88" y2="465.6"/><line class="d" x1="4120.74" y1="442.77" x2="4371.88" y2="442.77"/><line class="d" x1="4120.74" y1="419.94" x2="4371.88" y2="419.94"/><line class="d" x1="4120.74" y1="397.11" x2="4371.88" y2="397.11"/><line class="d" x1="4120.74" y1="374.28" x2="4371.88" y2="374.28"/><line class="d" x1="4349.04" y1="351.45" x2="4349.04" y2="602.58"/><line class="d" x1="4326.21" y1="351.45" x2="4326.21" y2="602.58"/><line class="d" x1="4303.38" y1="351.45" x2="4303.38" y2="602.58"/><line class="d" x1="4280.55" y1="351.45" x2="4280.55" y2="602.58"/><line class="d" x1="4257.72" y1="351.45" x2="4257.72" y2="602.58"/><line class="d" x1="4234.89" y1="351.45" x2="4234.89" y2="602.58"/><line class="d" x1="4212.06" y1="351.45" x2="4212.06" y2="602.58"/><line class="d" x1="4189.23" y1="351.45" x2="4189.23" y2="602.58"/><line class="d" x1="4166.4" y1="351.45" x2="4166.4" y2="602.58"/><line class="d" x1="4143.57" y1="351.45" x2="4143.57" y2="602.58"/><rect class="d" x="4470.51" y="351.45" width="251.14" height="251.14"/><line class="d" x1="4470.51" y1="579.75" x2="4721.65" y2="579.75"/><line class="d" x1="4470.51" y1="556.92" x2="4721.65" y2="556.92"/><line class="d" x1="4470.51" y1="534.09" x2="4721.65" y2="534.09"/><line class="d" x1="4470.51" y1="511.26" x2="4721.65" y2="511.26"/><line class="d" x1="4470.51" y1="488.43" x2="4721.65" y2="488.43"/><line class="d" x1="4470.51" y1="465.6" x2="4721.65" y2="465.6"/><line class="d" x1="4470.51" y1="442.77" x2="4721.65" y2="442.77"/><line class="d" x1="4470.51" y1="419.94" x2="4721.65" y2="419.94"/><line class="d" x1="4470.51" y1="397.11" x2="4721.65" y2="397.11"/><line class="d" x1="4470.51" y1="374.28" x2="4721.65" y2="374.28"/><line class="d" x1="4698.82" y1="351.45" x2="4698.82" y2="602.58"/><line class="d" x1="4675.99" y1="351.45" x2="4675.99" y2="602.58"/><line class="d" x1="4653.16" y1="351.45" x2="4653.16" y2="602.58"/><line class="d" x1="4630.32" y1="351.45" x2="4630.32" y2="602.58"/><line class="d" x1="4607.49" y1="351.45" x2="4607.49" y2="602.58"/><line class="d" x1="4584.66" y1="351.45" x2="4584.66" y2="602.58"/><line class="d" x1="4561.83" y1="351.45" x2="4561.83" y2="602.58"/><line class="d" x1="4539" y1="351.45" x2="4539" y2="602.58"/><line class="d" x1="4516.17" y1="351.45" x2="4516.17" y2="602.58"/><line class="d" x1="4493.34" y1="351.45" x2="4493.34" y2="602.58"/><rect class="d" x="4820.28" y="350.88" width="251.14" height="251.14"/><line class="d" x1="4820.28" y1="579.19" x2="5071.42" y2="579.19"/><line class="d" x1="4820.28" y1="556.36" x2="5071.42" y2="556.36"/><line class="d" x1="4820.28" y1="533.53" x2="5071.42" y2="533.53"/><line class="d" x1="4820.28" y1="510.69" x2="5071.42" y2="510.69"/><line class="d" x1="4820.28" y1="487.86" x2="5071.42" y2="487.86"/><line class="d" x1="4820.28" y1="465.03" x2="5071.42" y2="465.03"/><line class="d" x1="4820.28" y1="442.2" x2="5071.42" y2="442.2"/><line class="d" x1="4820.28" y1="419.37" x2="5071.42" y2="419.37"/><line class="d" x1="4820.28" y1="396.54" x2="5071.42" y2="396.54"/><line class="d" x1="4820.28" y1="373.71" x2="5071.42" y2="373.71"/><line class="d" x1="5048.59" y1="350.88" x2="5048.59" y2="602.02"/><line class="d" x1="5025.76" y1="350.88" x2="5025.76" y2="602.02"/><line class="d" x1="5002.93" y1="350.88" x2="5002.93" y2="602.02"/><line class="d" x1="4980.1" y1="350.88" x2="4980.1" y2="602.02"/><line class="d" x1="4957.27" y1="350.88" x2="4957.27" y2="602.02"/><line class="d" x1="4934.44" y1="350.88" x2="4934.44" y2="602.02"/><line class="d" x1="4911.6" y1="350.88" x2="4911.6" y2="602.02"/><line class="d" x1="4888.77" y1="350.88" x2="4888.77" y2="602.02"/><line class="d" x1="4865.94" y1="350.88" x2="4865.94" y2="602.02"/><line class="d" x1="4843.11" y1="350.88" x2="4843.11" y2="602.02"/><rect class="d" x="5169.68" y="350.78" width="251.14" height="251.14"/><line class="d" x1="5169.68" y1="579.09" x2="5420.82" y2="579.09"/><line class="d" x1="5169.68" y1="556.26" x2="5420.82" y2="556.26"/><line class="d" x1="5169.68" y1="533.43" x2="5420.82" y2="533.43"/><line class="d" x1="5169.68" y1="510.59" x2="5420.82" y2="510.59"/><line class="d" x1="5169.68" y1="487.76" x2="5420.82" y2="487.76"/><line class="d" x1="5169.68" y1="464.93" x2="5420.82" y2="464.93"/><line class="d" x1="5169.68" y1="442.1" x2="5420.82" y2="442.1"/><line class="d" x1="5169.68" y1="419.27" x2="5420.82" y2="419.27"/><line class="d" x1="5169.68" y1="396.44" x2="5420.82" y2="396.44"/><line class="d" x1="5169.68" y1="373.61" x2="5420.82" y2="373.61"/><line class="d" x1="5397.99" y1="350.78" x2="5397.99" y2="601.92"/><line class="d" x1="5375.16" y1="350.78" x2="5375.16" y2="601.92"/><line class="d" x1="5352.32" y1="350.78" x2="5352.32" y2="601.92"/><line class="d" x1="5329.49" y1="350.78" x2="5329.49" y2="601.92"/><line class="d" x1="5306.66" y1="350.78" x2="5306.66" y2="601.92"/><line class="d" x1="5283.83" y1="350.78" x2="5283.83" y2="601.92"/><line class="d" x1="5261" y1="350.78" x2="5261" y2="601.92"/><line class="d" x1="5238.17" y1="350.78" x2="5238.17" y2="601.92"/><line class="d" x1="5215.34" y1="350.78" x2="5215.34" y2="601.92"/><line class="d" x1="5192.51" y1="350.78" x2="5192.51" y2="601.92"/><rect class="d" x="5519.83" y="351.4" width="251.14" height="251.14"/><line class="d" x1="5519.83" y1="579.71" x2="5770.96" y2="579.71"/><line class="d" x1="5519.83" y1="556.88" x2="5770.96" y2="556.88"/><line class="d" x1="5519.83" y1="534.05" x2="5770.96" y2="534.05"/><line class="d" x1="5519.83" y1="511.21" x2="5770.96" y2="511.21"/><line class="d" x1="5519.83" y1="488.38" x2="5770.96" y2="488.38"/><line class="d" x1="5519.83" y1="465.55" x2="5770.96" y2="465.55"/><line class="d" x1="5519.83" y1="442.72" x2="5770.96" y2="442.72"/><line class="d" x1="5519.83" y1="419.89" x2="5770.96" y2="419.89"/><line class="d" x1="5519.83" y1="397.06" x2="5770.96" y2="397.06"/><line class="d" x1="5519.83" y1="374.23" x2="5770.96" y2="374.23"/><line class="d" x1="5748.13" y1="351.4" x2="5748.13" y2="602.54"/><line class="d" x1="5725.3" y1="351.4" x2="5725.3" y2="602.54"/><line class="d" x1="5702.47" y1="351.4" x2="5702.47" y2="602.54"/><line class="d" x1="5679.64" y1="351.4" x2="5679.64" y2="602.54"/><line class="d" x1="5656.81" y1="351.4" x2="5656.81" y2="602.54"/><line class="d" x1="5633.98" y1="351.4" x2="5633.98" y2="602.54"/><line class="d" x1="5611.15" y1="351.4" x2="5611.15" y2="602.54"/><line class="d" x1="5588.32" y1="351.4" x2="5588.32" y2="602.54"/><line class="d" x1="5565.49" y1="351.4" x2="5565.49" y2="602.54"/><line class="d" x1="5542.66" y1="351.4" x2="5542.66" y2="602.54"/><rect class="d" x="5869.6" y="350.78" width="251.14" height="251.14"/><line class="d" x1="5869.6" y1="579.09" x2="6120.74" y2="579.09"/><line class="d" x1="5869.6" y1="556.26" x2="6120.74" y2="556.26"/><line class="d" x1="5869.6" y1="533.43" x2="6120.74" y2="533.43"/><line class="d" x1="5869.6" y1="510.59" x2="6120.74" y2="510.59"/><line class="d" x1="5869.6" y1="487.76" x2="6120.74" y2="487.76"/><line class="d" x1="5869.6" y1="464.93" x2="6120.74" y2="464.93"/><line class="d" x1="5869.6" y1="442.1" x2="6120.74" y2="442.1"/><line class="d" x1="5869.6" y1="419.27" x2="6120.74" y2="419.27"/><line class="d" x1="5869.6" y1="396.44" x2="6120.74" y2="396.44"/><line class="d" x1="5869.6" y1="373.61" x2="6120.74" y2="373.61"/><line class="d" x1="6097.91" y1="350.78" x2="6097.91" y2="601.92"/><line class="d" x1="6075.07" y1="350.78" x2="6075.07" y2="601.92"/><line class="d" x1="6052.24" y1="350.78" x2="6052.24" y2="601.92"/><line class="d" x1="6029.41" y1="350.78" x2="6029.41" y2="601.92"/><line class="d" x1="6006.58" y1="350.78" x2="6006.58" y2="601.92"/><line class="d" x1="5983.75" y1="350.78" x2="5983.75" y2="601.92"/><line class="d" x1="5960.92" y1="350.78" x2="5960.92" y2="601.92"/><line class="d" x1="5938.09" y1="350.78" x2="5938.09" y2="601.92"/><line class="d" x1="5915.26" y1="350.78" x2="5915.26" y2="601.92"/><line class="d" x1="5892.43" y1="350.78" x2="5892.43" y2="601.92"/><rect class="d" x="4120.74" y="701.07" width="251.14" height="251.14"/><line class="d" x1="4120.74" y1="929.38" x2="4371.88" y2="929.38"/><line class="d" x1="4120.74" y1="906.55" x2="4371.88" y2="906.55"/><line class="d" x1="4120.74" y1="883.72" x2="4371.88" y2="883.72"/><line class="d" x1="4120.74" y1="860.89" x2="4371.88" y2="860.89"/><line class="d" x1="4120.74" y1="838.06" x2="4371.88" y2="838.06"/><line class="d" x1="4120.74" y1="815.23" x2="4371.88" y2="815.23"/><line class="d" x1="4120.74" y1="792.4" x2="4371.88" y2="792.4"/><line class="d" x1="4120.74" y1="769.57" x2="4371.88" y2="769.57"/><line class="d" x1="4120.74" y1="746.74" x2="4371.88" y2="746.74"/><line class="d" x1="4120.74" y1="723.9" x2="4371.88" y2="723.9"/><line class="d" x1="4349.04" y1="701.07" x2="4349.04" y2="952.21"/><line class="d" x1="4326.21" y1="701.07" x2="4326.21" y2="952.21"/><line class="d" x1="4303.38" y1="701.07" x2="4303.38" y2="952.21"/><line class="d" x1="4280.55" y1="701.07" x2="4280.55" y2="952.21"/><line class="d" x1="4257.72" y1="701.07" x2="4257.72" y2="952.21"/><line class="d" x1="4234.89" y1="701.07" x2="4234.89" y2="952.21"/><line class="d" x1="4212.06" y1="701.07" x2="4212.06" y2="952.21"/><line class="d" x1="4189.23" y1="701.07" x2="4189.23" y2="952.21"/><line class="d" x1="4166.4" y1="701.07" x2="4166.4" y2="952.21"/><line class="d" x1="4143.57" y1="701.07" x2="4143.57" y2="952.21"/><rect class="d" x="4470.51" y="701.07" width="251.14" height="251.14"/><line class="d" x1="4470.51" y1="929.38" x2="4721.65" y2="929.38"/><line class="d" x1="4470.51" y1="906.55" x2="4721.65" y2="906.55"/><line class="d" x1="4470.51" y1="883.72" x2="4721.65" y2="883.72"/><line class="d" x1="4470.51" y1="860.89" x2="4721.65" y2="860.89"/><line class="d" x1="4470.51" y1="838.06" x2="4721.65" y2="838.06"/><line class="d" x1="4470.51" y1="815.23" x2="4721.65" y2="815.23"/><line class="d" x1="4470.51" y1="792.4" x2="4721.65" y2="792.4"/><line class="d" x1="4470.51" y1="769.57" x2="4721.65" y2="769.57"/><line class="d" x1="4470.51" y1="746.74" x2="4721.65" y2="746.74"/><line class="d" x1="4470.51" y1="723.9" x2="4721.65" y2="723.9"/><line class="d" x1="4698.82" y1="701.07" x2="4698.82" y2="952.21"/><line class="d" x1="4675.99" y1="701.07" x2="4675.99" y2="952.21"/><line class="d" x1="4653.16" y1="701.07" x2="4653.16" y2="952.21"/><line class="d" x1="4630.32" y1="701.07" x2="4630.32" y2="952.21"/><line class="d" x1="4607.49" y1="701.07" x2="4607.49" y2="952.21"/><line class="d" x1="4584.66" y1="701.07" x2="4584.66" y2="952.21"/><line class="d" x1="4561.83" y1="701.07" x2="4561.83" y2="952.21"/><line class="d" x1="4539" y1="701.07" x2="4539" y2="952.21"/><line class="d" x1="4516.17" y1="701.07" x2="4516.17" y2="952.21"/><line class="d" x1="4493.34" y1="701.07" x2="4493.34" y2="952.21"/><rect class="d" x="4820.28" y="700.51" width="251.14" height="251.14"/><line class="d" x1="4820.28" y1="928.82" x2="5071.42" y2="928.82"/><line class="d" x1="4820.28" y1="905.98" x2="5071.42" y2="905.98"/><line class="d" x1="4820.28" y1="883.15" x2="5071.42" y2="883.15"/><line class="d" x1="4820.28" y1="860.32" x2="5071.42" y2="860.32"/><line class="d" x1="4820.28" y1="837.49" x2="5071.42" y2="837.49"/><line class="d" x1="4820.28" y1="814.66" x2="5071.42" y2="814.66"/><line class="d" x1="4820.28" y1="791.83" x2="5071.42" y2="791.83"/><line class="d" x1="4820.28" y1="769" x2="5071.42" y2="769"/><line class="d" x1="4820.28" y1="746.17" x2="5071.42" y2="746.17"/><line class="d" x1="4820.28" y1="723.34" x2="5071.42" y2="723.34"/><line class="d" x1="5048.59" y1="700.51" x2="5048.59" y2="951.65"/><line class="d" x1="5025.76" y1="700.51" x2="5025.76" y2="951.65"/><line class="d" x1="5002.93" y1="700.51" x2="5002.93" y2="951.65"/><line class="d" x1="4980.1" y1="700.51" x2="4980.1" y2="951.65"/><line class="d" x1="4957.27" y1="700.51" x2="4957.27" y2="951.65"/><line class="d" x1="4934.44" y1="700.51" x2="4934.44" y2="951.65"/><line class="d" x1="4911.6" y1="700.51" x2="4911.6" y2="951.65"/><line class="d" x1="4888.77" y1="700.51" x2="4888.77" y2="951.65"/><line class="d" x1="4865.94" y1="700.51" x2="4865.94" y2="951.65"/><line class="d" x1="4843.11" y1="700.51" x2="4843.11" y2="951.65"/><rect class="d" x="5169.68" y="700.41" width="251.14" height="251.14"/><line class="d" x1="5169.68" y1="928.72" x2="5420.82" y2="928.72"/><line class="d" x1="5169.68" y1="905.89" x2="5420.82" y2="905.89"/><line class="d" x1="5169.68" y1="883.05" x2="5420.82" y2="883.05"/><line class="d" x1="5169.68" y1="860.22" x2="5420.82" y2="860.22"/><line class="d" x1="5169.68" y1="837.39" x2="5420.82" y2="837.39"/><line class="d" x1="5169.68" y1="814.56" x2="5420.82" y2="814.56"/><line class="d" x1="5169.68" y1="791.73" x2="5420.82" y2="791.73"/><line class="d" x1="5169.68" y1="768.9" x2="5420.82" y2="768.9"/><line class="d" x1="5169.68" y1="746.07" x2="5420.82" y2="746.07"/><line class="d" x1="5169.68" y1="723.24" x2="5420.82" y2="723.24"/><line class="d" x1="5397.99" y1="700.41" x2="5397.99" y2="951.55"/><line class="d" x1="5375.16" y1="700.41" x2="5375.16" y2="951.55"/><line class="d" x1="5352.32" y1="700.41" x2="5352.32" y2="951.55"/><line class="d" x1="5329.49" y1="700.41" x2="5329.49" y2="951.55"/><line class="d" x1="5306.66" y1="700.41" x2="5306.66" y2="951.55"/><line class="d" x1="5283.83" y1="700.41" x2="5283.83" y2="951.55"/><line class="d" x1="5261" y1="700.41" x2="5261" y2="951.55"/><line class="d" x1="5238.17" y1="700.41" x2="5238.17" y2="951.55"/><line class="d" x1="5215.34" y1="700.41" x2="5215.34" y2="951.55"/><line class="d" x1="5192.51" y1="700.41" x2="5192.51" y2="951.55"/><rect class="d" x="5519.83" y="701.03" width="251.14" height="251.14"/><line class="d" x1="5519.83" y1="929.34" x2="5770.96" y2="929.34"/><line class="d" x1="5519.83" y1="906.51" x2="5770.96" y2="906.51"/><line class="d" x1="5519.83" y1="883.67" x2="5770.96" y2="883.67"/><line class="d" x1="5519.83" y1="860.84" x2="5770.96" y2="860.84"/><line class="d" x1="5519.83" y1="838.01" x2="5770.96" y2="838.01"/><line class="d" x1="5519.83" y1="815.18" x2="5770.96" y2="815.18"/><line class="d" x1="5519.83" y1="792.35" x2="5770.96" y2="792.35"/><line class="d" x1="5519.83" y1="769.52" x2="5770.96" y2="769.52"/><line class="d" x1="5519.83" y1="746.69" x2="5770.96" y2="746.69"/><line class="d" x1="5519.83" y1="723.86" x2="5770.96" y2="723.86"/><line class="d" x1="5748.13" y1="701.03" x2="5748.13" y2="952.17"/><line class="d" x1="5725.3" y1="701.03" x2="5725.3" y2="952.17"/><line class="d" x1="5702.47" y1="701.03" x2="5702.47" y2="952.17"/><line class="d" x1="5679.64" y1="701.03" x2="5679.64" y2="952.17"/><line class="d" x1="5656.81" y1="701.03" x2="5656.81" y2="952.17"/><line class="d" x1="5633.98" y1="701.03" x2="5633.98" y2="952.17"/><line class="d" x1="5611.15" y1="701.03" x2="5611.15" y2="952.17"/><line class="d" x1="5588.32" y1="701.03" x2="5588.32" y2="952.17"/><line class="d" x1="5565.49" y1="701.03" x2="5565.49" y2="952.17"/><line class="d" x1="5542.66" y1="701.03" x2="5542.66" y2="952.17"/><rect class="d" x="5869.6" y="700.41" width="251.14" height="251.14"/><line class="d" x1="5869.6" y1="928.72" x2="6120.74" y2="928.72"/><line class="d" x1="5869.6" y1="905.89" x2="6120.74" y2="905.89"/><line class="d" x1="5869.6" y1="883.05" x2="6120.74" y2="883.05"/><line class="d" x1="5869.6" y1="860.22" x2="6120.74" y2="860.22"/><line class="d" x1="5869.6" y1="837.39" x2="6120.74" y2="837.39"/><line class="d" x1="5869.6" y1="814.56" x2="6120.74" y2="814.56"/><line class="d" x1="5869.6" y1="791.73" x2="6120.74" y2="791.73"/><line class="d" x1="5869.6" y1="768.9" x2="6120.74" y2="768.9"/><line class="d" x1="5869.6" y1="746.07" x2="6120.74" y2="746.07"/><line class="d" x1="5869.6" y1="723.24" x2="6120.74" y2="723.24"/><line class="d" x1="6097.91" y1="700.41" x2="6097.91" y2="951.55"/><line class="d" x1="6075.07" y1="700.41" x2="6075.07" y2="951.55"/><line class="d" x1="6052.24" y1="700.41" x2="6052.24" y2="951.55"/><line class="d" x1="6029.41" y1="700.41" x2="6029.41" y2="951.55"/><line class="d" x1="6006.58" y1="700.41" x2="6006.58" y2="951.55"/><line class="d" x1="5983.75" y1="700.41" x2="5983.75" y2="951.55"/><line class="d" x1="5960.92" y1="700.41" x2="5960.92" y2="951.55"/><line class="d" x1="5938.09" y1="700.41" x2="5938.09" y2="951.55"/><line class="d" x1="5915.26" y1="700.41" x2="5915.26" y2="951.55"/><line class="d" x1="5892.43" y1="700.41" x2="5892.43" y2="951.55"/><rect class="d" x="4120.74" y="1051.13" width="251.14" height="251.14"/><line class="d" x1="4120.74" y1="1279.44" x2="4371.88" y2="1279.44"/><line class="d" x1="4120.74" y1="1256.61" x2="4371.88" y2="1256.61"/><line class="d" x1="4120.74" y1="1233.78" x2="4371.88" y2="1233.78"/><line class="d" x1="4120.74" y1="1210.95" x2="4371.88" y2="1210.95"/><line class="d" x1="4120.74" y1="1188.12" x2="4371.88" y2="1188.12"/><line class="d" x1="4120.74" y1="1165.29" x2="4371.88" y2="1165.29"/><line class="d" x1="4120.74" y1="1142.46" x2="4371.88" y2="1142.46"/><line class="d" x1="4120.74" y1="1119.63" x2="4371.88" y2="1119.63"/><line class="d" x1="4120.74" y1="1096.79" x2="4371.88" y2="1096.79"/><line class="d" x1="4120.74" y1="1073.96" x2="4371.88" y2="1073.96"/><line class="d" x1="4349.04" y1="1051.13" x2="4349.04" y2="1302.27"/><line class="d" x1="4326.21" y1="1051.13" x2="4326.21" y2="1302.27"/><line class="d" x1="4303.38" y1="1051.13" x2="4303.38" y2="1302.27"/><line class="d" x1="4280.55" y1="1051.13" x2="4280.55" y2="1302.27"/><line class="d" x1="4257.72" y1="1051.13" x2="4257.72" y2="1302.27"/><line class="d" x1="4234.89" y1="1051.13" x2="4234.89" y2="1302.27"/><line class="d" x1="4212.06" y1="1051.13" x2="4212.06" y2="1302.27"/><line class="d" x1="4189.23" y1="1051.13" x2="4189.23" y2="1302.27"/><line class="d" x1="4166.4" y1="1051.13" x2="4166.4" y2="1302.27"/><line class="d" x1="4143.57" y1="1051.13" x2="4143.57" y2="1302.27"/><rect class="d" x="4470.51" y="1051.13" width="251.14" height="251.14"/><line class="d" x1="4470.51" y1="1279.44" x2="4721.65" y2="1279.44"/><line class="d" x1="4470.51" y1="1256.61" x2="4721.65" y2="1256.61"/><line class="d" x1="4470.51" y1="1233.78" x2="4721.65" y2="1233.78"/><line class="d" x1="4470.51" y1="1210.95" x2="4721.65" y2="1210.95"/><line class="d" x1="4470.51" y1="1188.12" x2="4721.65" y2="1188.12"/><line class="d" x1="4470.51" y1="1165.29" x2="4721.65" y2="1165.29"/><line class="d" x1="4470.51" y1="1142.46" x2="4721.65" y2="1142.46"/><line class="d" x1="4470.51" y1="1119.63" x2="4721.65" y2="1119.63"/><line class="d" x1="4470.51" y1="1096.79" x2="4721.65" y2="1096.79"/><line class="d" x1="4470.51" y1="1073.96" x2="4721.65" y2="1073.96"/><line class="d" x1="4698.82" y1="1051.13" x2="4698.82" y2="1302.27"/><line class="d" x1="4675.99" y1="1051.13" x2="4675.99" y2="1302.27"/><line class="d" x1="4653.16" y1="1051.13" x2="4653.16" y2="1302.27"/><line class="d" x1="4630.32" y1="1051.13" x2="4630.32" y2="1302.27"/><line class="d" x1="4607.49" y1="1051.13" x2="4607.49" y2="1302.27"/><line class="d" x1="4584.66" y1="1051.13" x2="4584.66" y2="1302.27"/><line class="d" x1="4561.83" y1="1051.13" x2="4561.83" y2="1302.27"/><line class="d" x1="4539" y1="1051.13" x2="4539" y2="1302.27"/><line class="d" x1="4516.17" y1="1051.13" x2="4516.17" y2="1302.27"/><line class="d" x1="4493.34" y1="1051.13" x2="4493.34" y2="1302.27"/><rect class="d" x="4820.28" y="1050.57" width="251.14" height="251.14"/><line class="d" x1="4820.28" y1="1278.87" x2="5071.42" y2="1278.87"/><line class="d" x1="4820.28" y1="1256.04" x2="5071.42" y2="1256.04"/><line class="d" x1="4820.28" y1="1233.21" x2="5071.42" y2="1233.21"/><line class="d" x1="4820.28" y1="1210.38" x2="5071.42" y2="1210.38"/><line class="d" x1="4820.28" y1="1187.55" x2="5071.42" y2="1187.55"/><line class="d" x1="4820.28" y1="1164.72" x2="5071.42" y2="1164.72"/><line class="d" x1="4820.28" y1="1141.89" x2="5071.42" y2="1141.89"/><line class="d" x1="4820.28" y1="1119.06" x2="5071.42" y2="1119.06"/><line class="d" x1="4820.28" y1="1096.23" x2="5071.42" y2="1096.23"/><line class="d" x1="4820.28" y1="1073.4" x2="5071.42" y2="1073.4"/><line class="d" x1="5048.59" y1="1050.57" x2="5048.59" y2="1301.71"/><line class="d" x1="5025.76" y1="1050.57" x2="5025.76" y2="1301.71"/><line class="d" x1="5002.93" y1="1050.57" x2="5002.93" y2="1301.71"/><line class="d" x1="4980.1" y1="1050.57" x2="4980.1" y2="1301.71"/><line class="d" x1="4957.27" y1="1050.57" x2="4957.27" y2="1301.71"/><line class="d" x1="4934.44" y1="1050.57" x2="4934.44" y2="1301.71"/><line class="d" x1="4911.6" y1="1050.57" x2="4911.6" y2="1301.71"/><line class="d" x1="4888.77" y1="1050.57" x2="4888.77" y2="1301.71"/><line class="d" x1="4865.94" y1="1050.57" x2="4865.94" y2="1301.71"/><line class="d" x1="4843.11" y1="1050.57" x2="4843.11" y2="1301.71"/><rect class="d" x="5169.68" y="1050.47" width="251.14" height="251.14"/><line class="d" x1="5169.68" y1="1278.77" x2="5420.82" y2="1278.77"/><line class="d" x1="5169.68" y1="1255.94" x2="5420.82" y2="1255.94"/><line class="d" x1="5169.68" y1="1233.11" x2="5420.82" y2="1233.11"/><line class="d" x1="5169.68" y1="1210.28" x2="5420.82" y2="1210.28"/><line class="d" x1="5169.68" y1="1187.45" x2="5420.82" y2="1187.45"/><line class="d" x1="5169.68" y1="1164.62" x2="5420.82" y2="1164.62"/><line class="d" x1="5169.68" y1="1141.79" x2="5420.82" y2="1141.79"/><line class="d" x1="5169.68" y1="1118.96" x2="5420.82" y2="1118.96"/><line class="d" x1="5169.68" y1="1096.13" x2="5420.82" y2="1096.13"/><line class="d" x1="5169.68" y1="1073.3" x2="5420.82" y2="1073.3"/><line class="d" x1="5397.99" y1="1050.47" x2="5397.99" y2="1301.61"/><line class="d" x1="5375.16" y1="1050.47" x2="5375.16" y2="1301.61"/><line class="d" x1="5352.32" y1="1050.47" x2="5352.32" y2="1301.61"/><line class="d" x1="5329.49" y1="1050.47" x2="5329.49" y2="1301.61"/><line class="d" x1="5306.66" y1="1050.47" x2="5306.66" y2="1301.61"/><line class="d" x1="5283.83" y1="1050.47" x2="5283.83" y2="1301.61"/><line class="d" x1="5261" y1="1050.47" x2="5261" y2="1301.61"/><line class="d" x1="5238.17" y1="1050.47" x2="5238.17" y2="1301.61"/><line class="d" x1="5215.34" y1="1050.47" x2="5215.34" y2="1301.61"/><line class="d" x1="5192.51" y1="1050.47" x2="5192.51" y2="1301.61"/><rect class="d" x="5519.83" y="1051.09" width="251.14" height="251.14"/><line class="d" x1="5519.83" y1="1279.39" x2="5770.96" y2="1279.39"/><line class="d" x1="5519.83" y1="1256.56" x2="5770.96" y2="1256.56"/><line class="d" x1="5519.83" y1="1233.73" x2="5770.96" y2="1233.73"/><line class="d" x1="5519.83" y1="1210.9" x2="5770.96" y2="1210.9"/><line class="d" x1="5519.83" y1="1188.07" x2="5770.96" y2="1188.07"/><line class="d" x1="5519.83" y1="1165.24" x2="5770.96" y2="1165.24"/><line class="d" x1="5519.83" y1="1142.41" x2="5770.96" y2="1142.41"/><line class="d" x1="5519.83" y1="1119.58" x2="5770.96" y2="1119.58"/><line class="d" x1="5519.83" y1="1096.75" x2="5770.96" y2="1096.75"/><line class="d" x1="5519.83" y1="1073.92" x2="5770.96" y2="1073.92"/><line class="d" x1="5748.13" y1="1051.09" x2="5748.13" y2="1302.23"/><line class="d" x1="5725.3" y1="1051.09" x2="5725.3" y2="1302.23"/><line class="d" x1="5702.47" y1="1051.09" x2="5702.47" y2="1302.23"/><line class="d" x1="5679.64" y1="1051.09" x2="5679.64" y2="1302.23"/><line class="d" x1="5656.81" y1="1051.09" x2="5656.81" y2="1302.23"/><line class="d" x1="5633.98" y1="1051.09" x2="5633.98" y2="1302.23"/><line class="d" x1="5611.15" y1="1051.09" x2="5611.15" y2="1302.23"/><line class="d" x1="5588.32" y1="1051.09" x2="5588.32" y2="1302.23"/><line class="d" x1="5565.49" y1="1051.09" x2="5565.49" y2="1302.23"/><line class="d" x1="5542.66" y1="1051.09" x2="5542.66" y2="1302.23"/><rect class="d" x="5869.6" y="1050.47" width="251.14" height="251.14"/><line class="d" x1="5869.6" y1="1278.77" x2="6120.74" y2="1278.77"/><line class="d" x1="5869.6" y1="1255.94" x2="6120.74" y2="1255.94"/><line class="d" x1="5869.6" y1="1233.11" x2="6120.74" y2="1233.11"/><line class="d" x1="5869.6" y1="1210.28" x2="6120.74" y2="1210.28"/><line class="d" x1="5869.6" y1="1187.45" x2="6120.74" y2="1187.45"/><line class="d" x1="5869.6" y1="1164.62" x2="6120.74" y2="1164.62"/><line class="d" x1="5869.6" y1="1141.79" x2="6120.74" y2="1141.79"/><line class="d" x1="5869.6" y1="1118.96" x2="6120.74" y2="1118.96"/><line class="d" x1="5869.6" y1="1096.13" x2="6120.74" y2="1096.13"/><line class="d" x1="5869.6" y1="1073.3" x2="6120.74" y2="1073.3"/><line class="d" x1="6097.91" y1="1050.47" x2="6097.91" y2="1301.61"/><line class="d" x1="6075.07" y1="1050.47" x2="6075.07" y2="1301.61"/><line class="d" x1="6052.24" y1="1050.47" x2="6052.24" y2="1301.61"/><line class="d" x1="6029.41" y1="1050.47" x2="6029.41" y2="1301.61"/><line class="d" x1="6006.58" y1="1050.47" x2="6006.58" y2="1301.61"/><line class="d" x1="5983.75" y1="1050.47" x2="5983.75" y2="1301.61"/><line class="d" x1="5960.92" y1="1050.47" x2="5960.92" y2="1301.61"/><line class="d" x1="5938.09" y1="1050.47" x2="5938.09" y2="1301.61"/><line class="d" x1="5915.26" y1="1050.47" x2="5915.26" y2="1301.61"/><line class="d" x1="5892.43" y1="1050.47" x2="5892.43" y2="1301.61"/><rect class="d" x="4120.74" y="1401.1" width="251.14" height="251.14"/><line class="d" x1="4120.74" y1="1629.4" x2="4371.88" y2="1629.4"/><line class="d" x1="4120.74" y1="1606.57" x2="4371.88" y2="1606.57"/><line class="d" x1="4120.74" y1="1583.74" x2="4371.88" y2="1583.74"/><line class="d" x1="4120.74" y1="1560.91" x2="4371.88" y2="1560.91"/><line class="d" x1="4120.74" y1="1538.08" x2="4371.88" y2="1538.08"/><line class="d" x1="4120.74" y1="1515.25" x2="4371.88" y2="1515.25"/><line class="d" x1="4120.74" y1="1492.42" x2="4371.88" y2="1492.42"/><line class="d" x1="4120.74" y1="1469.59" x2="4371.88" y2="1469.59"/><line class="d" x1="4120.74" y1="1446.76" x2="4371.88" y2="1446.76"/><line class="d" x1="4120.74" y1="1423.93" x2="4371.88" y2="1423.93"/><line class="d" x1="4349.04" y1="1401.1" x2="4349.04" y2="1652.23"/><line class="d" x1="4326.21" y1="1401.1" x2="4326.21" y2="1652.23"/><line class="d" x1="4303.38" y1="1401.1" x2="4303.38" y2="1652.23"/><line class="d" x1="4280.55" y1="1401.1" x2="4280.55" y2="1652.23"/><line class="d" x1="4257.72" y1="1401.1" x2="4257.72" y2="1652.23"/><line class="d" x1="4234.89" y1="1401.1" x2="4234.89" y2="1652.23"/><line class="d" x1="4212.06" y1="1401.1" x2="4212.06" y2="1652.23"/><line class="d" x1="4189.23" y1="1401.1" x2="4189.23" y2="1652.23"/><line class="d" x1="4166.4" y1="1401.1" x2="4166.4" y2="1652.23"/><line class="d" x1="4143.57" y1="1401.1" x2="4143.57" y2="1652.23"/><rect class="d" x="4470.51" y="1401.1" width="251.14" height="251.14"/><line class="d" x1="4470.51" y1="1629.4" x2="4721.65" y2="1629.4"/><line class="d" x1="4470.51" y1="1606.57" x2="4721.65" y2="1606.57"/><line class="d" x1="4470.51" y1="1583.74" x2="4721.65" y2="1583.74"/><line class="d" x1="4470.51" y1="1560.91" x2="4721.65" y2="1560.91"/><line class="d" x1="4470.51" y1="1538.08" x2="4721.65" y2="1538.08"/><line class="d" x1="4470.51" y1="1515.25" x2="4721.65" y2="1515.25"/><line class="d" x1="4470.51" y1="1492.42" x2="4721.65" y2="1492.42"/><line class="d" x1="4470.51" y1="1469.59" x2="4721.65" y2="1469.59"/><line class="d" x1="4470.51" y1="1446.76" x2="4721.65" y2="1446.76"/><line class="d" x1="4470.51" y1="1423.93" x2="4721.65" y2="1423.93"/><line class="d" x1="4698.82" y1="1401.1" x2="4698.82" y2="1652.23"/><line class="d" x1="4675.99" y1="1401.1" x2="4675.99" y2="1652.23"/><line class="d" x1="4653.16" y1="1401.1" x2="4653.16" y2="1652.23"/><line class="d" x1="4630.32" y1="1401.1" x2="4630.32" y2="1652.23"/><line class="d" x1="4607.49" y1="1401.1" x2="4607.49" y2="1652.23"/><line class="d" x1="4584.66" y1="1401.1" x2="4584.66" y2="1652.23"/><line class="d" x1="4561.83" y1="1401.1" x2="4561.83" y2="1652.23"/><line class="d" x1="4539" y1="1401.1" x2="4539" y2="1652.23"/><line class="d" x1="4516.17" y1="1401.1" x2="4516.17" y2="1652.23"/><line class="d" x1="4493.34" y1="1401.1" x2="4493.34" y2="1652.23"/><rect class="d" x="4820.28" y="1400.53" width="251.14" height="251.14"/><line class="d" x1="4820.28" y1="1628.84" x2="5071.42" y2="1628.84"/><line class="d" x1="4820.28" y1="1606.01" x2="5071.42" y2="1606.01"/><line class="d" x1="4820.28" y1="1583.17" x2="5071.42" y2="1583.17"/><line class="d" x1="4820.28" y1="1560.34" x2="5071.42" y2="1560.34"/><line class="d" x1="4820.28" y1="1537.51" x2="5071.42" y2="1537.51"/><line class="d" x1="4820.28" y1="1514.68" x2="5071.42" y2="1514.68"/><line class="d" x1="4820.28" y1="1491.85" x2="5071.42" y2="1491.85"/><line class="d" x1="4820.28" y1="1469.02" x2="5071.42" y2="1469.02"/><line class="d" x1="4820.28" y1="1446.19" x2="5071.42" y2="1446.19"/><line class="d" x1="4820.28" y1="1423.36" x2="5071.42" y2="1423.36"/><line class="d" x1="5048.59" y1="1400.53" x2="5048.59" y2="1651.67"/><line class="d" x1="5025.76" y1="1400.53" x2="5025.76" y2="1651.67"/><line class="d" x1="5002.93" y1="1400.53" x2="5002.93" y2="1651.67"/><line class="d" x1="4980.1" y1="1400.53" x2="4980.1" y2="1651.67"/><line class="d" x1="4957.27" y1="1400.53" x2="4957.27" y2="1651.67"/><line class="d" x1="4934.44" y1="1400.53" x2="4934.44" y2="1651.67"/><line class="d" x1="4911.6" y1="1400.53" x2="4911.6" y2="1651.67"/><line class="d" x1="4888.77" y1="1400.53" x2="4888.77" y2="1651.67"/><line class="d" x1="4865.94" y1="1400.53" x2="4865.94" y2="1651.67"/><line class="d" x1="4843.11" y1="1400.53" x2="4843.11" y2="1651.67"/><rect class="d" x="5169.68" y="1400.43" width="251.14" height="251.14"/><line class="d" x1="5169.68" y1="1628.74" x2="5420.82" y2="1628.74"/><line class="d" x1="5169.68" y1="1605.91" x2="5420.82" y2="1605.91"/><line class="d" x1="5169.68" y1="1583.08" x2="5420.82" y2="1583.08"/><line class="d" x1="5169.68" y1="1560.24" x2="5420.82" y2="1560.24"/><line class="d" x1="5169.68" y1="1537.41" x2="5420.82" y2="1537.41"/><line class="d" x1="5169.68" y1="1514.58" x2="5420.82" y2="1514.58"/><line class="d" x1="5169.68" y1="1491.75" x2="5420.82" y2="1491.75"/><line class="d" x1="5169.68" y1="1468.92" x2="5420.82" y2="1468.92"/><line class="d" x1="5169.68" y1="1446.09" x2="5420.82" y2="1446.09"/><line class="d" x1="5169.68" y1="1423.26" x2="5420.82" y2="1423.26"/><line class="d" x1="5397.99" y1="1400.43" x2="5397.99" y2="1651.57"/><line class="d" x1="5375.16" y1="1400.43" x2="5375.16" y2="1651.57"/><line class="d" x1="5352.32" y1="1400.43" x2="5352.32" y2="1651.57"/><line class="d" x1="5329.49" y1="1400.43" x2="5329.49" y2="1651.57"/><line class="d" x1="5306.66" y1="1400.43" x2="5306.66" y2="1651.57"/><line class="d" x1="5283.83" y1="1400.43" x2="5283.83" y2="1651.57"/><line class="d" x1="5261" y1="1400.43" x2="5261" y2="1651.57"/><line class="d" x1="5238.17" y1="1400.43" x2="5238.17" y2="1651.57"/><line class="d" x1="5215.34" y1="1400.43" x2="5215.34" y2="1651.57"/><line class="d" x1="5192.51" y1="1400.43" x2="5192.51" y2="1651.57"/><rect class="d" x="5519.83" y="1401.05" width="251.14" height="251.14"/><line class="d" x1="5519.83" y1="1629.36" x2="5770.96" y2="1629.36"/><line class="d" x1="5519.83" y1="1606.53" x2="5770.96" y2="1606.53"/><line class="d" x1="5519.83" y1="1583.7" x2="5770.96" y2="1583.7"/><line class="d" x1="5519.83" y1="1560.86" x2="5770.96" y2="1560.86"/><line class="d" x1="5519.83" y1="1538.03" x2="5770.96" y2="1538.03"/><line class="d" x1="5519.83" y1="1515.2" x2="5770.96" y2="1515.2"/><line class="d" x1="5519.83" y1="1492.37" x2="5770.96" y2="1492.37"/><line class="d" x1="5519.83" y1="1469.54" x2="5770.96" y2="1469.54"/><line class="d" x1="5519.83" y1="1446.71" x2="5770.96" y2="1446.71"/><line class="d" x1="5519.83" y1="1423.88" x2="5770.96" y2="1423.88"/><line class="d" x1="5748.13" y1="1401.05" x2="5748.13" y2="1652.19"/><line class="d" x1="5725.3" y1="1401.05" x2="5725.3" y2="1652.19"/><line class="d" x1="5702.47" y1="1401.05" x2="5702.47" y2="1652.19"/><line class="d" x1="5679.64" y1="1401.05" x2="5679.64" y2="1652.19"/><line class="d" x1="5656.81" y1="1401.05" x2="5656.81" y2="1652.19"/><line class="d" x1="5633.98" y1="1401.05" x2="5633.98" y2="1652.19"/><line class="d" x1="5611.15" y1="1401.05" x2="5611.15" y2="1652.19"/><line class="d" x1="5588.32" y1="1401.05" x2="5588.32" y2="1652.19"/><line class="d" x1="5565.49" y1="1401.05" x2="5565.49" y2="1652.19"/><line class="d" x1="5542.66" y1="1401.05" x2="5542.66" y2="1652.19"/><rect class="d" x="5869.6" y="1400.43" width="251.14" height="251.14"/><line class="d" x1="5869.6" y1="1628.74" x2="6120.74" y2="1628.74"/><line class="d" x1="5869.6" y1="1605.91" x2="6120.74" y2="1605.91"/><line class="d" x1="5869.6" y1="1583.08" x2="6120.74" y2="1583.08"/><line class="d" x1="5869.6" y1="1560.24" x2="6120.74" y2="1560.24"/><line class="d" x1="5869.6" y1="1537.41" x2="6120.74" y2="1537.41"/><line class="d" x1="5869.6" y1="1514.58" x2="6120.74" y2="1514.58"/><line class="d" x1="5869.6" y1="1491.75" x2="6120.74" y2="1491.75"/><line class="d" x1="5869.6" y1="1468.92" x2="6120.74" y2="1468.92"/><line class="d" x1="5869.6" y1="1446.09" x2="6120.74" y2="1446.09"/><line class="d" x1="5869.6" y1="1423.26" x2="6120.74" y2="1423.26"/><line class="d" x1="6097.91" y1="1400.43" x2="6097.91" y2="1651.57"/><line class="d" x1="6075.07" y1="1400.43" x2="6075.07" y2="1651.57"/><line class="d" x1="6052.24" y1="1400.43" x2="6052.24" y2="1651.57"/><line class="d" x1="6029.41" y1="1400.43" x2="6029.41" y2="1651.57"/><line class="d" x1="6006.58" y1="1400.43" x2="6006.58" y2="1651.57"/><line class="d" x1="5983.75" y1="1400.43" x2="5983.75" y2="1651.57"/><line class="d" x1="5960.92" y1="1400.43" x2="5960.92" y2="1651.57"/><line class="d" x1="5938.09" y1="1400.43" x2="5938.09" y2="1651.57"/><line class="d" x1="5915.26" y1="1400.43" x2="5915.26" y2="1651.57"/><line class="d" x1="5892.43" y1="1400.43" x2="5892.43" y2="1651.57"/><rect class="d" x="4120.74" y="1751.15" width="251.14" height="251.14"/><line class="d" x1="4120.74" y1="1979.46" x2="4371.88" y2="1979.46"/><line class="d" x1="4120.74" y1="1956.63" x2="4371.88" y2="1956.63"/><line class="d" x1="4120.74" y1="1933.8" x2="4371.88" y2="1933.8"/><line class="d" x1="4120.74" y1="1910.97" x2="4371.88" y2="1910.97"/><line class="d" x1="4120.74" y1="1888.14" x2="4371.88" y2="1888.14"/><line class="d" x1="4120.74" y1="1865.31" x2="4371.88" y2="1865.31"/><line class="d" x1="4120.74" y1="1842.48" x2="4371.88" y2="1842.48"/><line class="d" x1="4120.74" y1="1819.65" x2="4371.88" y2="1819.65"/><line class="d" x1="4120.74" y1="1796.82" x2="4371.88" y2="1796.82"/><line class="d" x1="4120.74" y1="1773.98" x2="4371.88" y2="1773.98"/><line class="d" x1="4349.04" y1="1751.15" x2="4349.04" y2="2002.29"/><line class="d" x1="4326.21" y1="1751.15" x2="4326.21" y2="2002.29"/><line class="d" x1="4303.38" y1="1751.15" x2="4303.38" y2="2002.29"/><line class="d" x1="4280.55" y1="1751.15" x2="4280.55" y2="2002.29"/><line class="d" x1="4257.72" y1="1751.15" x2="4257.72" y2="2002.29"/><line class="d" x1="4234.89" y1="1751.15" x2="4234.89" y2="2002.29"/><line class="d" x1="4212.06" y1="1751.15" x2="4212.06" y2="2002.29"/><line class="d" x1="4189.23" y1="1751.15" x2="4189.23" y2="2002.29"/><line class="d" x1="4166.4" y1="1751.15" x2="4166.4" y2="2002.29"/><line class="d" x1="4143.57" y1="1751.15" x2="4143.57" y2="2002.29"/><rect class="d" x="4470.51" y="1751.15" width="251.14" height="251.14"/><line class="d" x1="4470.51" y1="1979.46" x2="4721.65" y2="1979.46"/><line class="d" x1="4470.51" y1="1956.63" x2="4721.65" y2="1956.63"/><line class="d" x1="4470.51" y1="1933.8" x2="4721.65" y2="1933.8"/><line class="d" x1="4470.51" y1="1910.97" x2="4721.65" y2="1910.97"/><line class="d" x1="4470.51" y1="1888.14" x2="4721.65" y2="1888.14"/><line class="d" x1="4470.51" y1="1865.31" x2="4721.65" y2="1865.31"/><line class="d" x1="4470.51" y1="1842.48" x2="4721.65" y2="1842.48"/><line class="d" x1="4470.51" y1="1819.65" x2="4721.65" y2="1819.65"/><line class="d" x1="4470.51" y1="1796.82" x2="4721.65" y2="1796.82"/><line class="d" x1="4470.51" y1="1773.98" x2="4721.65" y2="1773.98"/><line class="d" x1="4698.82" y1="1751.15" x2="4698.82" y2="2002.29"/><line class="d" x1="4675.99" y1="1751.15" x2="4675.99" y2="2002.29"/><line class="d" x1="4653.16" y1="1751.15" x2="4653.16" y2="2002.29"/><line class="d" x1="4630.32" y1="1751.15" x2="4630.32" y2="2002.29"/><line class="d" x1="4607.49" y1="1751.15" x2="4607.49" y2="2002.29"/><line class="d" x1="4584.66" y1="1751.15" x2="4584.66" y2="2002.29"/><line class="d" x1="4561.83" y1="1751.15" x2="4561.83" y2="2002.29"/><line class="d" x1="4539" y1="1751.15" x2="4539" y2="2002.29"/><line class="d" x1="4516.17" y1="1751.15" x2="4516.17" y2="2002.29"/><line class="d" x1="4493.34" y1="1751.15" x2="4493.34" y2="2002.29"/><rect class="d" x="4820.28" y="1750.59" width="251.14" height="251.14"/><line class="d" x1="4820.28" y1="1978.9" x2="5071.42" y2="1978.9"/><line class="d" x1="4820.28" y1="1956.06" x2="5071.42" y2="1956.06"/><line class="d" x1="4820.28" y1="1933.23" x2="5071.42" y2="1933.23"/><line class="d" x1="4820.28" y1="1910.4" x2="5071.42" y2="1910.4"/><line class="d" x1="4820.28" y1="1887.57" x2="5071.42" y2="1887.57"/><line class="d" x1="4820.28" y1="1864.74" x2="5071.42" y2="1864.74"/><line class="d" x1="4820.28" y1="1841.91" x2="5071.42" y2="1841.91"/><line class="d" x1="4820.28" y1="1819.08" x2="5071.42" y2="1819.08"/><line class="d" x1="4820.28" y1="1796.25" x2="5071.42" y2="1796.25"/><line class="d" x1="4820.28" y1="1773.42" x2="5071.42" y2="1773.42"/><line class="d" x1="5048.59" y1="1750.59" x2="5048.59" y2="2001.73"/><line class="d" x1="5025.76" y1="1750.59" x2="5025.76" y2="2001.73"/><line class="d" x1="5002.93" y1="1750.59" x2="5002.93" y2="2001.73"/><line class="d" x1="4980.1" y1="1750.59" x2="4980.1" y2="2001.73"/><line class="d" x1="4957.27" y1="1750.59" x2="4957.27" y2="2001.73"/><line class="d" x1="4934.44" y1="1750.59" x2="4934.44" y2="2001.73"/><line class="d" x1="4911.6" y1="1750.59" x2="4911.6" y2="2001.73"/><line class="d" x1="4888.77" y1="1750.59" x2="4888.77" y2="2001.73"/><line class="d" x1="4865.94" y1="1750.59" x2="4865.94" y2="2001.73"/><line class="d" x1="4843.11" y1="1750.59" x2="4843.11" y2="2001.73"/><rect class="d" x=".72" y="1.34" width="2000" height="2000"/><line class="d" x1=".72" y1="1995.01" x2="2000.72" y2="1995.01"/><line class="d" x1=".72" y1="1988.68" x2="2000.72" y2="1988.68"/><line class="d" x1=".72" y1="1982.35" x2="2000.72" y2="1982.35"/><line class="d" x1=".72" y1="1976.02" x2="2000.72" y2="1976.02"/><line class="d" x1=".72" y1="1969.69" x2="2000.72" y2="1969.69"/><line class="d" x1=".72" y1="1963.37" x2="2000.72" y2="1963.37"/><line class="d" x1=".72" y1="1957.04" x2="2000.72" y2="1957.04"/><line class="d" x1=".72" y1="1950.71" x2="2000.72" y2="1950.71"/><line class="d" x1=".72" y1="1944.38" x2="2000.72" y2="1944.38"/><line class="d" x1=".72" y1="1938.05" x2="2000.72" y2="1938.05"/><line class="d" x1=".72" y1="1931.72" x2="2000.72" y2="1931.72"/><line class="d" x1=".72" y1="1925.39" x2="2000.72" y2="1925.39"/><line class="d" x1=".72" y1="1919.06" x2="2000.72" y2="1919.06"/><line class="d" x1=".72" y1="1912.73" x2="2000.72" y2="1912.73"/><line class="d" x1=".72" y1="1906.4" x2="2000.72" y2="1906.4"/><line class="d" x1=".72" y1="1900.07" x2="2000.72" y2="1900.07"/><line class="d" x1=".72" y1="1893.75" x2="2000.72" y2="1893.75"/><line class="d" x1=".72" y1="1887.42" x2="2000.72" y2="1887.42"/><line class="d" x1=".72" y1="1881.09" x2="2000.72" y2="1881.09"/><line class="d" x1=".72" y1="1874.76" x2="2000.72" y2="1874.76"/><line class="d" x1=".72" y1="1868.43" x2="2000.72" y2="1868.43"/><line class="d" x1=".72" y1="1862.1" x2="2000.72" y2="1862.1"/><line class="d" x1=".72" y1="1855.77" x2="2000.72" y2="1855.77"/><line class="d" x1=".72" y1="1849.44" x2="2000.72" y2="1849.44"/><line class="d" x1=".72" y1="1843.11" x2="2000.72" y2="1843.11"/><line class="d" x1=".72" y1="1836.78" x2="2000.72" y2="1836.78"/><line class="d" x1=".72" y1="1830.45" x2="2000.72" y2="1830.45"/><line class="d" x1=".72" y1="1824.12" x2="2000.72" y2="1824.12"/><line class="d" x1=".72" y1="1817.8" x2="2000.72" y2="1817.8"/><line class="d" x1=".72" y1="1811.47" x2="2000.72" y2="1811.47"/><line class="d" x1=".72" y1="1805.14" x2="2000.72" y2="1805.14"/><line class="d" x1=".72" y1="1798.81" x2="2000.72" y2="1798.81"/><line class="d" x1=".72" y1="1792.48" x2="2000.72" y2="1792.48"/><line class="d" x1=".72" y1="1786.15" x2="2000.72" y2="1786.15"/><line class="d" x1=".72" y1="1779.82" x2="2000.72" y2="1779.82"/><line class="d" x1=".72" y1="1773.49" x2="2000.72" y2="1773.49"/><line class="d" x1=".72" y1="1767.16" x2="2000.72" y2="1767.16"/><line class="d" x1=".72" y1="1760.83" x2="2000.72" y2="1760.83"/><line class="d" x1=".72" y1="1754.5" x2="2000.72" y2="1754.5"/><line class="d" x1=".72" y1="1748.18" x2="2000.72" y2="1748.18"/><line class="d" x1=".72" y1="1741.85" x2="2000.72" y2="1741.85"/><line class="d" x1=".72" y1="1735.52" x2="2000.72" y2="1735.52"/><line class="d" x1=".72" y1="1729.19" x2="2000.72" y2="1729.19"/><line class="d" x1=".72" y1="1722.86" x2="2000.72" y2="1722.86"/><line class="d" x1=".72" y1="1716.53" x2="2000.72" y2="1716.53"/><line class="d" x1=".72" y1="1710.2" x2="2000.72" y2="1710.2"/><line class="d" x1=".72" y1="1703.87" x2="2000.72" y2="1703.87"/><line class="d" x1=".72" y1="1697.54" x2="2000.72" y2="1697.54"/><line class="d" x1=".72" y1="1691.21" x2="2000.72" y2="1691.21"/><line class="d" x1=".72" y1="1684.88" x2="2000.72" y2="1684.88"/><line class="d" x1=".72" y1="1678.56" x2="2000.72" y2="1678.56"/><line class="d" x1=".72" y1="1672.23" x2="2000.72" y2="1672.23"/><line class="d" x1=".72" y1="1665.9" x2="2000.72" y2="1665.9"/><line class="d" x1=".72" y1="1659.57" x2="2000.72" y2="1659.57"/><line class="d" x1=".72" y1="1653.24" x2="2000.72" y2="1653.24"/><line class="d" x1=".72" y1="1646.91" x2="2000.72" y2="1646.91"/><line class="d" x1=".72" y1="1640.58" x2="2000.72" y2="1640.58"/><line class="d" x1=".72" y1="1634.25" x2="2000.72" y2="1634.25"/><line class="d" x1=".72" y1="1627.92" x2="2000.72" y2="1627.92"/><line class="d" x1=".72" y1="1621.59" x2="2000.72" y2="1621.59"/><line class="d" x1=".72" y1="1615.26" x2="2000.72" y2="1615.26"/><line class="d" x1=".72" y1="1608.93" x2="2000.72" y2="1608.93"/><line class="d" x1=".72" y1="1602.61" x2="2000.72" y2="1602.61"/><line class="d" x1=".72" y1="1596.28" x2="2000.72" y2="1596.28"/><line class="d" x1=".72" y1="1589.95" x2="2000.72" y2="1589.95"/><line class="d" x1=".72" y1="1583.62" x2="2000.72" y2="1583.62"/><line class="d" x1=".72" y1="1577.29" x2="2000.72" y2="1577.29"/><line class="d" x1=".72" y1="1570.96" x2="2000.72" y2="1570.96"/><line class="d" x1=".72" y1="1564.63" x2="2000.72" y2="1564.63"/><line class="d" x1=".72" y1="1558.3" x2="2000.72" y2="1558.3"/><line class="d" x1=".72" y1="1551.97" x2="2000.72" y2="1551.97"/><line class="d" x1=".72" y1="1545.64" x2="2000.72" y2="1545.64"/><line class="d" x1=".72" y1="1539.31" x2="2000.72" y2="1539.31"/><line class="d" x1=".72" y1="1532.99" x2="2000.72" y2="1532.99"/><line class="d" x1=".72" y1="1526.66" x2="2000.72" y2="1526.66"/><line class="d" x1=".72" y1="1520.33" x2="2000.72" y2="1520.33"/><line class="d" x1=".72" y1="1514" x2="2000.72" y2="1514"/><line class="d" x1=".72" y1="1507.67" x2="2000.72" y2="1507.67"/><line class="d" x1=".72" y1="1501.34" x2="2000.72" y2="1501.34"/><line class="d" x1=".72" y1="1495.01" x2="2000.72" y2="1495.01"/><line class="d" x1=".72" y1="1488.68" x2="2000.72" y2="1488.68"/><line class="d" x1=".72" y1="1482.35" x2="2000.72" y2="1482.35"/><line class="d" x1=".72" y1="1476.02" x2="2000.72" y2="1476.02"/><line class="d" x1=".72" y1="1469.69" x2="2000.72" y2="1469.69"/><line class="d" x1=".72" y1="1463.37" x2="2000.72" y2="1463.37"/><line class="d" x1=".72" y1="1457.04" x2="2000.72" y2="1457.04"/><line class="d" x1=".72" y1="1450.71" x2="2000.72" y2="1450.71"/><line class="d" x1=".72" y1="1444.38" x2="2000.72" y2="1444.38"/><line class="d" x1=".72" y1="1438.05" x2="2000.72" y2="1438.05"/><line class="d" x1=".72" y1="1431.72" x2="2000.72" y2="1431.72"/><line class="d" x1=".72" y1="1425.39" x2="2000.72" y2="1425.39"/><line class="d" x1=".72" y1="1419.06" x2="2000.72" y2="1419.06"/><line class="d" x1=".72" y1="1412.73" x2="2000.72" y2="1412.73"/><line class="d" x1=".72" y1="1406.4" x2="2000.72" y2="1406.4"/><line class="d" x1=".72" y1="1400.07" x2="2000.72" y2="1400.07"/><line class="d" x1=".72" y1="1393.75" x2="2000.72" y2="1393.75"/><line class="d" x1=".72" y1="1387.42" x2="2000.72" y2="1387.42"/><line class="d" x1=".72" y1="1381.09" x2="2000.72" y2="1381.09"/><line class="d" x1=".72" y1="1374.76" x2="2000.72" y2="1374.76"/><line class="d" x1=".72" y1="1368.43" x2="2000.72" y2="1368.43"/><line class="d" x1=".72" y1="1362.1" x2="2000.72" y2="1362.1"/><line class="d" x1=".72" y1="1355.77" x2="2000.72" y2="1355.77"/><line class="d" x1=".72" y1="1349.44" x2="2000.72" y2="1349.44"/><line class="d" x1=".72" y1="1343.11" x2="2000.72" y2="1343.11"/><line class="d" x1=".72" y1="1336.78" x2="2000.72" y2="1336.78"/><line class="d" x1=".72" y1="1330.45" x2="2000.72" y2="1330.45"/><line class="d" x1=".72" y1="1324.12" x2="2000.72" y2="1324.12"/><line class="d" x1=".72" y1="1317.8" x2="2000.72" y2="1317.8"/><line class="d" x1=".72" y1="1311.47" x2="2000.72" y2="1311.47"/><line class="d" x1=".72" y1="1305.14" x2="2000.72" y2="1305.14"/><line class="d" x1=".72" y1="1298.81" x2="2000.72" y2="1298.81"/><line class="d" x1=".72" y1="1292.48" x2="2000.72" y2="1292.48"/><line class="d" x1=".72" y1="1286.15" x2="2000.72" y2="1286.15"/><line class="d" x1=".72" y1="1279.82" x2="2000.72" y2="1279.82"/><line class="d" x1=".72" y1="1273.49" x2="2000.72" y2="1273.49"/><line class="d" x1=".72" y1="1267.16" x2="2000.72" y2="1267.16"/><line class="d" x1=".72" y1="1260.83" x2="2000.72" y2="1260.83"/><line class="d" x1=".72" y1="1254.5" x2="2000.72" y2="1254.5"/><line class="d" x1=".72" y1="1248.18" x2="2000.72" y2="1248.18"/><line class="d" x1=".72" y1="1241.85" x2="2000.72" y2="1241.85"/><line class="d" x1=".72" y1="1235.52" x2="2000.72" y2="1235.52"/><line class="d" x1=".72" y1="1229.19" x2="2000.72" y2="1229.19"/><line class="d" x1=".72" y1="1222.86" x2="2000.72" y2="1222.86"/><line class="d" x1=".72" y1="1216.53" x2="2000.72" y2="1216.53"/><line class="d" x1=".72" y1="1210.2" x2="2000.72" y2="1210.2"/><line class="d" x1=".72" y1="1203.87" x2="2000.72" y2="1203.87"/><line class="d" x1=".72" y1="1197.54" x2="2000.72" y2="1197.54"/><line class="d" x1=".72" y1="1191.21" x2="2000.72" y2="1191.21"/><line class="d" x1=".72" y1="1184.88" x2="2000.72" y2="1184.88"/><line class="d" x1=".72" y1="1178.56" x2="2000.72" y2="1178.56"/><line class="d" x1=".72" y1="1172.23" x2="2000.72" y2="1172.23"/><line class="d" x1=".72" y1="1165.9" x2="2000.72" y2="1165.9"/><line class="d" x1=".72" y1="1159.57" x2="2000.72" y2="1159.57"/><line class="d" x1=".72" y1="1153.24" x2="2000.72" y2="1153.24"/><line class="d" x1=".72" y1="1146.91" x2="2000.72" y2="1146.91"/><line class="d" x1=".72" y1="1140.58" x2="2000.72" y2="1140.58"/><line class="d" x1=".72" y1="1134.25" x2="2000.72" y2="1134.25"/><line class="d" x1=".72" y1="1127.92" x2="2000.72" y2="1127.92"/><line class="d" x1=".72" y1="1121.59" x2="2000.72" y2="1121.59"/><line class="d" x1=".72" y1="1115.26" x2="2000.72" y2="1115.26"/><line class="d" x1=".72" y1="1108.93" x2="2000.72" y2="1108.93"/><line class="d" x1=".72" y1="1102.61" x2="2000.72" y2="1102.61"/><line class="d" x1=".72" y1="1096.28" x2="2000.72" y2="1096.28"/><line class="d" x1=".72" y1="1089.95" x2="2000.72" y2="1089.95"/><line class="d" x1=".72" y1="1083.62" x2="2000.72" y2="1083.62"/><line class="d" x1=".72" y1="1077.29" x2="2000.72" y2="1077.29"/><line class="d" x1=".72" y1="1070.96" x2="2000.72" y2="1070.96"/><line class="d" x1=".72" y1="1064.63" x2="2000.72" y2="1064.63"/><line class="d" x1=".72" y1="1058.3" x2="2000.72" y2="1058.3"/><line class="d" x1=".72" y1="1051.97" x2="2000.72" y2="1051.97"/><line class="d" x1=".72" y1="1045.64" x2="2000.72" y2="1045.64"/><line class="d" x1=".72" y1="1039.31" x2="2000.72" y2="1039.31"/><line class="d" x1=".72" y1="1032.99" x2="2000.72" y2="1032.99"/><line class="d" x1=".72" y1="1026.66" x2="2000.72" y2="1026.66"/><line class="d" x1=".72" y1="1020.33" x2="2000.72" y2="1020.33"/><line class="d" x1=".72" y1="1014" x2="2000.72" y2="1014"/><line class="d" x1=".72" y1="1007.67" x2="2000.72" y2="1007.67"/><line class="d" x1=".72" y1="1001.34" x2="2000.72" y2="1001.34"/><line class="d" x1=".72" y1="995.01" x2="2000.72" y2="995.01"/><line class="d" x1=".72" y1="988.68" x2="2000.72" y2="988.68"/><line class="d" x1=".72" y1="982.35" x2="2000.72" y2="982.35"/><line class="d" x1=".72" y1="976.02" x2="2000.72" y2="976.02"/><line class="d" x1=".72" y1="969.69" x2="2000.72" y2="969.69"/><line class="d" x1=".72" y1="963.37" x2="2000.72" y2="963.37"/><line class="d" x1=".72" y1="957.04" x2="2000.72" y2="957.04"/><line class="d" x1=".72" y1="950.71" x2="2000.72" y2="950.71"/><line class="d" x1=".72" y1="944.38" x2="2000.72" y2="944.38"/><line class="d" x1=".72" y1="938.05" x2="2000.72" y2="938.05"/><line class="d" x1=".72" y1="931.72" x2="2000.72" y2="931.72"/><line class="d" x1=".72" y1="925.39" x2="2000.72" y2="925.39"/><line class="d" x1=".72" y1="919.06" x2="2000.72" y2="919.06"/><line class="d" x1=".72" y1="912.73" x2="2000.72" y2="912.73"/><line class="d" x1=".72" y1="906.4" x2="2000.72" y2="906.4"/><line class="d" x1=".72" y1="900.07" x2="2000.72" y2="900.07"/><line class="d" x1=".72" y1="893.75" x2="2000.72" y2="893.75"/><line class="d" x1=".72" y1="887.42" x2="2000.72" y2="887.42"/><line class="d" x1=".72" y1="881.09" x2="2000.72" y2="881.09"/><line class="d" x1=".72" y1="874.76" x2="2000.72" y2="874.76"/><line class="d" x1=".72" y1="868.43" x2="2000.72" y2="868.43"/><line class="d" x1=".72" y1="862.1" x2="2000.72" y2="862.1"/><line class="d" x1=".72" y1="855.77" x2="2000.72" y2="855.77"/><line class="d" x1=".72" y1="849.44" x2="2000.72" y2="849.44"/><line class="d" x1=".72" y1="843.11" x2="2000.72" y2="843.11"/><line class="d" x1=".72" y1="836.78" x2="2000.72" y2="836.78"/><line class="d" x1=".72" y1="830.45" x2="2000.72" y2="830.45"/><line class="d" x1=".72" y1="824.12" x2="2000.72" y2="824.12"/><line class="d" x1=".72" y1="817.8" x2="2000.72" y2="817.8"/><line class="d" x1=".72" y1="811.47" x2="2000.72" y2="811.47"/><line class="d" x1=".72" y1="805.14" x2="2000.72" y2="805.14"/><line class="d" x1=".72" y1="798.81" x2="2000.72" y2="798.81"/><line class="d" x1=".72" y1="792.48" x2="2000.72" y2="792.48"/><line class="d" x1=".72" y1="786.15" x2="2000.72" y2="786.15"/><line class="d" x1=".72" y1="779.82" x2="2000.72" y2="779.82"/><line class="d" x1=".72" y1="773.49" x2="2000.72" y2="773.49"/><line class="d" x1=".72" y1="767.16" x2="2000.72" y2="767.16"/><line class="d" x1=".72" y1="760.83" x2="2000.72" y2="760.83"/><line class="d" x1=".72" y1="754.5" x2="2000.72" y2="754.5"/><line class="d" x1=".72" y1="748.18" x2="2000.72" y2="748.18"/><line class="d" x1=".72" y1="741.85" x2="2000.72" y2="741.85"/><line class="d" x1=".72" y1="735.52" x2="2000.72" y2="735.52"/><line class="d" x1=".72" y1="729.19" x2="2000.72" y2="729.19"/><line class="d" x1=".72" y1="722.86" x2="2000.72" y2="722.86"/><line class="d" x1=".72" y1="716.53" x2="2000.72" y2="716.53"/><line class="d" x1=".72" y1="710.2" x2="2000.72" y2="710.2"/><line class="d" x1=".72" y1="703.87" x2="2000.72" y2="703.87"/><line class="d" x1=".72" y1="697.54" x2="2000.72" y2="697.54"/><line class="d" x1=".72" y1="691.21" x2="2000.72" y2="691.21"/><line class="d" x1=".72" y1="684.88" x2="2000.72" y2="684.88"/><line class="d" x1=".72" y1="678.56" x2="2000.72" y2="678.56"/><line class="d" x1=".72" y1="672.23" x2="2000.72" y2="672.23"/><line class="d" x1=".72" y1="665.9" x2="2000.72" y2="665.9"/><line class="d" x1=".72" y1="659.57" x2="2000.72" y2="659.57"/><line class="d" x1=".72" y1="653.24" x2="2000.72" y2="653.24"/><line class="d" x1=".72" y1="646.91" x2="2000.72" y2="646.91"/><line class="d" x1=".72" y1="640.58" x2="2000.72" y2="640.58"/><line class="d" x1=".72" y1="634.25" x2="2000.72" y2="634.25"/><line class="d" x1=".72" y1="627.92" x2="2000.72" y2="627.92"/><line class="d" x1=".72" y1="621.59" x2="2000.72" y2="621.59"/><line class="d" x1=".72" y1="615.26" x2="2000.72" y2="615.26"/><line class="d" x1=".72" y1="608.93" x2="2000.72" y2="608.93"/><line class="d" x1=".72" y1="602.61" x2="2000.72" y2="602.61"/><line class="d" x1=".72" y1="596.28" x2="2000.72" y2="596.28"/><line class="d" x1=".72" y1="589.95" x2="2000.72" y2="589.95"/><line class="d" x1=".72" y1="583.62" x2="2000.72" y2="583.62"/><line class="d" x1=".72" y1="577.29" x2="2000.72" y2="577.29"/><line class="d" x1=".72" y1="570.96" x2="2000.72" y2="570.96"/><line class="d" x1=".72" y1="564.63" x2="2000.72" y2="564.63"/><line class="d" x1=".72" y1="558.3" x2="2000.72" y2="558.3"/><line class="d" x1=".72" y1="551.97" x2="2000.72" y2="551.97"/><line class="d" x1=".72" y1="545.64" x2="2000.72" y2="545.64"/><line class="d" x1=".72" y1="539.31" x2="2000.72" y2="539.31"/><line class="d" x1=".72" y1="532.99" x2="2000.72" y2="532.99"/><line class="d" x1=".72" y1="526.66" x2="2000.72" y2="526.66"/><line class="d" x1=".72" y1="520.33" x2="2000.72" y2="520.33"/><line class="d" x1=".72" y1="514" x2="2000.72" y2="514"/><line class="d" x1=".72" y1="507.67" x2="2000.72" y2="507.67"/><line class="d" x1=".72" y1="501.34" x2="2000.72" y2="501.34"/><line class="d" x1=".72" y1="495.01" x2="2000.72" y2="495.01"/><line class="d" x1=".72" y1="488.68" x2="2000.72" y2="488.68"/><line class="d" x1=".72" y1="482.35" x2="2000.72" y2="482.35"/><line class="d" x1=".72" y1="476.02" x2="2000.72" y2="476.02"/><line class="d" x1=".72" y1="469.69" x2="2000.72" y2="469.69"/><line class="d" x1=".72" y1="463.37" x2="2000.72" y2="463.37"/><line class="d" x1=".72" y1="457.04" x2="2000.72" y2="457.04"/><line class="d" x1=".72" y1="450.71" x2="2000.72" y2="450.71"/><line class="d" x1=".72" y1="444.38" x2="2000.72" y2="444.38"/><line class="d" x1=".72" y1="438.05" x2="2000.72" y2="438.05"/><line class="d" x1=".72" y1="431.72" x2="2000.72" y2="431.72"/><line class="d" x1=".72" y1="425.39" x2="2000.72" y2="425.39"/><line class="d" x1=".72" y1="419.06" x2="2000.72" y2="419.06"/><line class="d" x1=".72" y1="412.73" x2="2000.72" y2="412.73"/><line class="d" x1=".72" y1="406.4" x2="2000.72" y2="406.4"/><line class="d" x1=".72" y1="400.07" x2="2000.72" y2="400.07"/><line class="d" x1=".72" y1="393.75" x2="2000.72" y2="393.75"/><line class="d" x1=".72" y1="387.42" x2="2000.72" y2="387.42"/><line class="d" x1=".72" y1="381.09" x2="2000.72" y2="381.09"/><line class="d" x1=".72" y1="374.76" x2="2000.72" y2="374.76"/><line class="d" x1=".72" y1="368.43" x2="2000.72" y2="368.43"/><line class="d" x1=".72" y1="362.1" x2="2000.72" y2="362.1"/><line class="d" x1=".72" y1="355.77" x2="2000.72" y2="355.77"/><line class="d" x1=".72" y1="349.44" x2="2000.72" y2="349.44"/><line class="d" x1=".72" y1="343.11" x2="2000.72" y2="343.11"/><line class="d" x1=".72" y1="336.78" x2="2000.72" y2="336.78"/><line class="d" x1=".72" y1="330.45" x2="2000.72" y2="330.45"/><line class="d" x1=".72" y1="324.12" x2="2000.72" y2="324.12"/><line class="d" x1=".72" y1="317.8" x2="2000.72" y2="317.8"/><line class="d" x1=".72" y1="311.47" x2="2000.72" y2="311.47"/><line class="d" x1=".72" y1="305.14" x2="2000.72" y2="305.14"/><line class="d" x1=".72" y1="298.81" x2="2000.72" y2="298.81"/><line class="d" x1=".72" y1="292.48" x2="2000.72" y2="292.48"/><line class="d" x1=".72" y1="286.15" x2="2000.72" y2="286.15"/><line class="d" x1=".72" y1="279.82" x2="2000.72" y2="279.82"/><line class="d" x1=".72" y1="273.49" x2="2000.72" y2="273.49"/><line class="d" x1=".72" y1="267.16" x2="2000.72" y2="267.16"/><line class="d" x1=".72" y1="260.83" x2="2000.72" y2="260.83"/><line class="d" x1=".72" y1="254.5" x2="2000.72" y2="254.5"/><line class="d" x1=".72" y1="248.18" x2="2000.72" y2="248.18"/><line class="d" x1=".72" y1="241.85" x2="2000.72" y2="241.85"/><line class="d" x1=".72" y1="235.52" x2="2000.72" y2="235.52"/><line class="d" x1=".72" y1="229.19" x2="2000.72" y2="229.19"/><line class="d" x1=".72" y1="222.86" x2="2000.72" y2="222.86"/><line class="d" x1=".72" y1="216.53" x2="2000.72" y2="216.53"/><line class="d" x1=".72" y1="210.2" x2="2000.72" y2="210.2"/><line class="d" x1=".72" y1="203.87" x2="2000.72" y2="203.87"/><line class="d" x1=".72" y1="197.54" x2="2000.72" y2="197.54"/><line class="d" x1=".72" y1="191.21" x2="2000.72" y2="191.21"/><line class="d" x1=".72" y1="184.88" x2="2000.72" y2="184.88"/><line class="d" x1=".72" y1="178.56" x2="2000.72" y2="178.56"/><line class="d" x1=".72" y1="172.23" x2="2000.72" y2="172.23"/><line class="d" x1=".72" y1="165.9" x2="2000.72" y2="165.9"/><line class="d" x1=".72" y1="159.57" x2="2000.72" y2="159.57"/><line class="d" x1=".72" y1="153.24" x2="2000.72" y2="153.24"/><line class="d" x1=".72" y1="146.91" x2="2000.72" y2="146.91"/><line class="d" x1=".72" y1="140.58" x2="2000.72" y2="140.58"/><line class="d" x1=".72" y1="134.25" x2="2000.72" y2="134.25"/><line class="d" x1=".72" y1="127.92" x2="2000.72" y2="127.92"/><line class="d" x1=".72" y1="121.59" x2="2000.72" y2="121.59"/><line class="d" x1=".72" y1="115.26" x2="2000.72" y2="115.26"/><line class="d" x1=".72" y1="108.93" x2="2000.72" y2="108.93"/><line class="d" x1=".72" y1="102.61" x2="2000.72" y2="102.61"/><line class="d" x1=".72" y1="96.28" x2="2000.72" y2="96.28"/><line class="d" x1=".72" y1="89.95" x2="2000.72" y2="89.95"/><line class="d" x1=".72" y1="83.62" x2="2000.72" y2="83.62"/><line class="d" x1=".72" y1="77.29" x2="2000.72" y2="77.29"/><line class="d" x1=".72" y1="70.96" x2="2000.72" y2="70.96"/><line class="d" x1=".72" y1="64.63" x2="2000.72" y2="64.63"/><line class="d" x1=".72" y1="58.3" x2="2000.72" y2="58.3"/><line class="d" x1=".72" y1="51.97" x2="2000.72" y2="51.97"/><line class="d" x1=".72" y1="45.64" x2="2000.72" y2="45.64"/><line class="d" x1=".72" y1="39.31" x2="2000.72" y2="39.31"/><line class="d" x1=".72" y1="32.99" x2="2000.72" y2="32.99"/><line class="d" x1=".72" y1="26.66" x2="2000.72" y2="26.66"/><line class="d" x1=".72" y1="20.33" x2="2000.72" y2="20.33"/><line class="d" x1=".72" y1="14" x2="2000.72" y2="14"/><line class="d" x1=".72" y1="7.67" x2="2000.72" y2="7.67"/><line class="d" x1="1994.39" y1="1.34" x2="1994.39" y2="2001.34"/><line class="d" x1="1988.06" y1="1.34" x2="1988.06" y2="2001.34"/><line class="d" x1="1981.73" y1="1.34" x2="1981.73" y2="2001.34"/><line class="d" x1="1975.4" y1="1.34" x2="1975.4" y2="2001.34"/><line class="d" x1="1969.07" y1="1.34" x2="1969.07" y2="2001.34"/><line class="d" x1="1962.75" y1="1.34" x2="1962.75" y2="2001.34"/><line class="d" x1="1956.42" y1="1.34" x2="1956.42" y2="2001.34"/><line class="d" x1="1950.09" y1="1.34" x2="1950.09" y2="2001.34"/><line class="d" x1="1943.76" y1="1.34" x2="1943.76" y2="2001.34"/><line class="d" x1="1937.43" y1="1.34" x2="1937.43" y2="2001.34"/><line class="d" x1="1931.1" y1="1.34" x2="1931.1" y2="2001.34"/><line class="d" x1="1924.77" y1="1.34" x2="1924.77" y2="2001.34"/><line class="d" x1="1918.44" y1="1.34" x2="1918.44" y2="2001.34"/><line class="d" x1="1912.11" y1="1.34" x2="1912.11" y2="2001.34"/><line class="d" x1="1905.78" y1="1.34" x2="1905.78" y2="2001.34"/><line class="d" x1="1899.45" y1="1.34" x2="1899.45" y2="2001.34"/><line class="d" x1="1893.13" y1="1.34" x2="1893.13" y2="2001.34"/><line class="d" x1="1886.8" y1="1.34" x2="1886.8" y2="2001.34"/><line class="d" x1="1880.47" y1="1.34" x2="1880.47" y2="2001.34"/><line class="d" x1="1874.14" y1="1.34" x2="1874.14" y2="2001.34"/><line class="d" x1="1867.81" y1="1.34" x2="1867.81" y2="2001.34"/><line class="d" x1="1861.48" y1="1.34" x2="1861.48" y2="2001.34"/><line class="d" x1="1855.15" y1="1.34" x2="1855.15" y2="2001.34"/><line class="d" x1="1848.82" y1="1.34" x2="1848.82" y2="2001.34"/><line class="d" x1="1842.49" y1="1.34" x2="1842.49" y2="2001.34"/><line class="d" x1="1836.16" y1="1.34" x2="1836.16" y2="2001.34"/><line class="d" x1="1829.83" y1="1.34" x2="1829.83" y2="2001.34"/><line class="d" x1="1823.5" y1="1.34" x2="1823.5" y2="2001.34"/><line class="d" x1="1817.18" y1="1.34" x2="1817.18" y2="2001.34"/><line class="d" x1="1810.85" y1="1.34" x2="1810.85" y2="2001.34"/><line class="d" x1="1804.52" y1="1.34" x2="1804.52" y2="2001.34"/><line class="d" x1="1798.19" y1="1.34" x2="1798.19" y2="2001.34"/><line class="d" x1="1791.86" y1="1.34" x2="1791.86" y2="2001.34"/><line class="d" x1="1785.53" y1="1.34" x2="1785.53" y2="2001.34"/><line class="d" x1="1779.2" y1="1.34" x2="1779.2" y2="2001.34"/><line class="d" x1="1772.87" y1="1.34" x2="1772.87" y2="2001.34"/><line class="d" x1="1766.54" y1="1.34" x2="1766.54" y2="2001.34"/><line class="d" x1="1760.21" y1="1.34" x2="1760.21" y2="2001.34"/><line class="d" x1="1753.88" y1="1.34" x2="1753.88" y2="2001.34"/><line class="d" x1="1747.56" y1="1.34" x2="1747.56" y2="2001.34"/><line class="d" x1="1741.23" y1="1.34" x2="1741.23" y2="2001.34"/><line class="d" x1="1734.9" y1="1.34" x2="1734.9" y2="2001.34"/><line class="d" x1="1728.57" y1="1.34" x2="1728.57" y2="2001.34"/><line class="d" x1="1722.24" y1="1.34" x2="1722.24" y2="2001.34"/><line class="d" x1="1715.91" y1="1.34" x2="1715.91" y2="2001.34"/><line class="d" x1="1709.58" y1="1.34" x2="1709.58" y2="2001.34"/><line class="d" x1="1703.25" y1="1.34" x2="1703.25" y2="2001.34"/><line class="d" x1="1696.92" y1="1.34" x2="1696.92" y2="2001.34"/><line class="d" x1="1690.59" y1="1.34" x2="1690.59" y2="2001.34"/><line class="d" x1="1684.26" y1="1.34" x2="1684.26" y2="2001.34"/><line class="d" x1="1677.94" y1="1.34" x2="1677.94" y2="2001.34"/><line class="d" x1="1671.61" y1="1.34" x2="1671.61" y2="2001.34"/><line class="d" x1="1665.28" y1="1.34" x2="1665.28" y2="2001.34"/><line class="d" x1="1658.95" y1="1.34" x2="1658.95" y2="2001.34"/><line class="d" x1="1652.62" y1="1.34" x2="1652.62" y2="2001.34"/><line class="d" x1="1646.29" y1="1.34" x2="1646.29" y2="2001.34"/><line class="d" x1="1639.96" y1="1.34" x2="1639.96" y2="2001.34"/><line class="d" x1="1633.63" y1="1.34" x2="1633.63" y2="2001.34"/><line class="d" x1="1627.3" y1="1.34" x2="1627.3" y2="2001.34"/><line class="d" x1="1620.97" y1="1.34" x2="1620.97" y2="2001.34"/><line class="d" x1="1614.64" y1="1.34" x2="1614.64" y2="2001.34"/><line class="d" x1="1608.31" y1="1.34" x2="1608.31" y2="2001.34"/><line class="d" x1="1601.99" y1="1.34" x2="1601.99" y2="2001.34"/><line class="d" x1="1595.66" y1="1.34" x2="1595.66" y2="2001.34"/><line class="d" x1="1589.33" y1="1.34" x2="1589.33" y2="2001.34"/><line class="d" x1="1583" y1="1.34" x2="1583" y2="2001.34"/><line class="d" x1="1576.67" y1="1.34" x2="1576.67" y2="2001.34"/><line class="d" x1="1570.34" y1="1.34" x2="1570.34" y2="2001.34"/><line class="d" x1="1564.01" y1="1.34" x2="1564.01" y2="2001.34"/><line class="d" x1="1557.68" y1="1.34" x2="1557.68" y2="2001.34"/><line class="d" x1="1551.35" y1="1.34" x2="1551.35" y2="2001.34"/><line class="d" x1="1545.02" y1="1.34" x2="1545.02" y2="2001.34"/><line class="d" x1="1538.69" y1="1.34" x2="1538.69" y2="2001.34"/><line class="d" x1="1532.37" y1="1.34" x2="1532.37" y2="2001.34"/><line class="d" x1="1526.04" y1="1.34" x2="1526.04" y2="2001.34"/><line class="d" x1="1519.71" y1="1.34" x2="1519.71" y2="2001.34"/><line class="d" x1="1513.38" y1="1.34" x2="1513.38" y2="2001.34"/><line class="d" x1="1507.05" y1="1.34" x2="1507.05" y2="2001.34"/><line class="d" x1="1500.72" y1="1.34" x2="1500.72" y2="2001.34"/><line class="d" x1="1494.39" y1="1.34" x2="1494.39" y2="2001.34"/><line class="d" x1="1488.06" y1="1.34" x2="1488.06" y2="2001.34"/><line class="d" x1="1481.73" y1="1.34" x2="1481.73" y2="2001.34"/><line class="d" x1="1475.4" y1="1.34" x2="1475.4" y2="2001.34"/><line class="d" x1="1469.07" y1="1.34" x2="1469.07" y2="2001.34"/><line class="d" x1="1462.75" y1="1.34" x2="1462.75" y2="2001.34"/><line class="d" x1="1456.42" y1="1.34" x2="1456.42" y2="2001.34"/><line class="d" x1="1450.09" y1="1.34" x2="1450.09" y2="2001.34"/><line class="d" x1="1443.76" y1="1.34" x2="1443.76" y2="2001.34"/><line class="d" x1="1437.43" y1="1.34" x2="1437.43" y2="2001.34"/><line class="d" x1="1431.1" y1="1.34" x2="1431.1" y2="2001.34"/><line class="d" x1="1424.77" y1="1.34" x2="1424.77" y2="2001.34"/><line class="d" x1="1418.44" y1="1.34" x2="1418.44" y2="2001.34"/><line class="d" x1="1412.11" y1="1.34" x2="1412.11" y2="2001.34"/><line class="d" x1="1405.78" y1="1.34" x2="1405.78" y2="2001.34"/><line class="d" x1="1399.45" y1="1.34" x2="1399.45" y2="2001.34"/><line class="d" x1="1393.13" y1="1.34" x2="1393.13" y2="2001.34"/><line class="d" x1="1386.8" y1="1.34" x2="1386.8" y2="2001.34"/><line class="d" x1="1380.47" y1="1.34" x2="1380.47" y2="2001.34"/><line class="d" x1="1374.14" y1="1.34" x2="1374.14" y2="2001.34"/><line class="d" x1="1367.81" y1="1.34" x2="1367.81" y2="2001.34"/><line class="d" x1="1361.48" y1="1.34" x2="1361.48" y2="2001.34"/><line class="d" x1="1355.15" y1="1.34" x2="1355.15" y2="2001.34"/><line class="d" x1="1348.82" y1="1.34" x2="1348.82" y2="2001.34"/><line class="d" x1="1342.49" y1="1.34" x2="1342.49" y2="2001.34"/><line class="d" x1="1336.16" y1="1.34" x2="1336.16" y2="2001.34"/><line class="d" x1="1329.83" y1="1.34" x2="1329.83" y2="2001.34"/><line class="d" x1="1323.5" y1="1.34" x2="1323.5" y2="2001.34"/><line class="d" x1="1317.18" y1="1.34" x2="1317.18" y2="2001.34"/><line class="d" x1="1310.85" y1="1.34" x2="1310.85" y2="2001.34"/><line class="d" x1="1304.52" y1="1.34" x2="1304.52" y2="2001.34"/><line class="d" x1="1298.19" y1="1.34" x2="1298.19" y2="2001.34"/><line class="d" x1="1291.86" y1="1.34" x2="1291.86" y2="2001.34"/><line class="d" x1="1285.53" y1="1.34" x2="1285.53" y2="2001.34"/><line class="d" x1="1279.2" y1="1.34" x2="1279.2" y2="2001.34"/><line class="d" x1="1272.87" y1="1.34" x2="1272.87" y2="2001.34"/><line class="d" x1="1266.54" y1="1.34" x2="1266.54" y2="2001.34"/><line class="d" x1="1260.21" y1="1.34" x2="1260.21" y2="2001.34"/><line class="d" x1="1253.88" y1="1.34" x2="1253.88" y2="2001.34"/><line class="d" x1="1247.56" y1="1.34" x2="1247.56" y2="2001.34"/><line class="d" x1="1241.23" y1="1.34" x2="1241.23" y2="2001.34"/><line class="d" x1="1234.9" y1="1.34" x2="1234.9" y2="2001.34"/><line class="d" x1="1228.57" y1="1.34" x2="1228.57" y2="2001.34"/><line class="d" x1="1222.24" y1="1.34" x2="1222.24" y2="2001.34"/><line class="d" x1="1215.91" y1="1.34" x2="1215.91" y2="2001.34"/><line class="d" x1="1209.58" y1="1.34" x2="1209.58" y2="2001.34"/><line class="d" x1="1203.25" y1="1.34" x2="1203.25" y2="2001.34"/><line class="d" x1="1196.92" y1="1.34" x2="1196.92" y2="2001.34"/><line class="d" x1="1190.59" y1="1.34" x2="1190.59" y2="2001.34"/><line class="d" x1="1184.26" y1="1.34" x2="1184.26" y2="2001.34"/><line class="d" x1="1177.94" y1="1.34" x2="1177.94" y2="2001.34"/><line class="d" x1="1171.61" y1="1.34" x2="1171.61" y2="2001.34"/><line class="d" x1="1165.28" y1="1.34" x2="1165.28" y2="2001.34"/><line class="d" x1="1158.95" y1="1.34" x2="1158.95" y2="2001.34"/><line class="d" x1="1152.62" y1="1.34" x2="1152.62" y2="2001.34"/><line class="d" x1="1146.29" y1="1.34" x2="1146.29" y2="2001.34"/><line class="d" x1="1139.96" y1="1.34" x2="1139.96" y2="2001.34"/><line class="d" x1="1133.63" y1="1.34" x2="1133.63" y2="2001.34"/><line class="d" x1="1127.3" y1="1.34" x2="1127.3" y2="2001.34"/><line class="d" x1="1120.97" y1="1.34" x2="1120.97" y2="2001.34"/><line class="d" x1="1114.64" y1="1.34" x2="1114.64" y2="2001.34"/><line class="d" x1="1108.31" y1="1.34" x2="1108.31" y2="2001.34"/><line class="d" x1="1101.99" y1="1.34" x2="1101.99" y2="2001.34"/><line class="d" x1="1095.66" y1="1.34" x2="1095.66" y2="2001.34"/><line class="d" x1="1089.33" y1="1.34" x2="1089.33" y2="2001.34"/><line class="d" x1="1083" y1="1.34" x2="1083" y2="2001.34"/><line class="d" x1="1076.67" y1="1.34" x2="1076.67" y2="2001.34"/><line class="d" x1="1070.34" y1="1.34" x2="1070.34" y2="2001.34"/><line class="d" x1="1064.01" y1="1.34" x2="1064.01" y2="2001.34"/><line class="d" x1="1057.68" y1="1.34" x2="1057.68" y2="2001.34"/><line class="d" x1="1051.35" y1="1.34" x2="1051.35" y2="2001.34"/><line class="d" x1="1045.02" y1="1.34" x2="1045.02" y2="2001.34"/><line class="d" x1="1038.69" y1="1.34" x2="1038.69" y2="2001.34"/><line class="d" x1="1032.37" y1="1.34" x2="1032.37" y2="2001.34"/><line class="d" x1="1026.04" y1="1.34" x2="1026.04" y2="2001.34"/><line class="d" x1="1019.71" y1="1.34" x2="1019.71" y2="2001.34"/><line class="d" x1="1013.38" y1="1.34" x2="1013.38" y2="2001.34"/><line class="d" x1="1007.05" y1="1.34" x2="1007.05" y2="2001.34"/><line class="d" x1="1000.72" y1="1.34" x2="1000.72" y2="2001.34"/><line class="d" x1="994.39" y1="1.34" x2="994.39" y2="2001.34"/><line class="d" x1="988.06" y1="1.34" x2="988.06" y2="2001.34"/><line class="d" x1="981.73" y1="1.34" x2="981.73" y2="2001.34"/><line class="d" x1="975.4" y1="1.34" x2="975.4" y2="2001.34"/><line class="d" x1="969.07" y1="1.34" x2="969.07" y2="2001.34"/><line class="d" x1="962.75" y1="1.34" x2="962.75" y2="2001.34"/><line class="d" x1="956.42" y1="1.34" x2="956.42" y2="2001.34"/><line class="d" x1="950.09" y1="1.34" x2="950.09" y2="2001.34"/><line class="d" x1="943.76" y1="1.34" x2="943.76" y2="2001.34"/><line class="d" x1="937.43" y1="1.34" x2="937.43" y2="2001.34"/><line class="d" x1="931.1" y1="1.34" x2="931.1" y2="2001.34"/><line class="d" x1="924.77" y1="1.34" x2="924.77" y2="2001.34"/><line class="d" x1="918.44" y1="1.34" x2="918.44" y2="2001.34"/><line class="d" x1="912.11" y1="1.34" x2="912.11" y2="2001.34"/><line class="d" x1="905.78" y1="1.34" x2="905.78" y2="2001.34"/><line class="d" x1="899.45" y1="1.34" x2="899.45" y2="2001.34"/><line class="d" x1="893.13" y1="1.34" x2="893.13" y2="2001.34"/><line class="d" x1="886.8" y1="1.34" x2="886.8" y2="2001.34"/><line class="d" x1="880.47" y1="1.34" x2="880.47" y2="2001.34"/><line class="d" x1="874.14" y1="1.34" x2="874.14" y2="2001.34"/><line class="d" x1="867.81" y1="1.34" x2="867.81" y2="2001.34"/><line class="d" x1="861.48" y1="1.34" x2="861.48" y2="2001.34"/><line class="d" x1="855.15" y1="1.34" x2="855.15" y2="2001.34"/><line class="d" x1="848.82" y1="1.34" x2="848.82" y2="2001.34"/><line class="d" x1="842.49" y1="1.34" x2="842.49" y2="2001.34"/><line class="d" x1="836.16" y1="1.34" x2="836.16" y2="2001.34"/><line class="d" x1="829.83" y1="1.34" x2="829.83" y2="2001.34"/><line class="d" x1="823.5" y1="1.34" x2="823.5" y2="2001.34"/><line class="d" x1="817.18" y1="1.34" x2="817.18" y2="2001.34"/><line class="d" x1="810.85" y1="1.34" x2="810.85" y2="2001.34"/><line class="d" x1="804.52" y1="1.34" x2="804.52" y2="2001.34"/><line class="d" x1="798.19" y1="1.34" x2="798.19" y2="2001.34"/><line class="d" x1="791.86" y1="1.34" x2="791.86" y2="2001.34"/><line class="d" x1="785.53" y1="1.34" x2="785.53" y2="2001.34"/><line class="d" x1="779.2" y1="1.34" x2="779.2" y2="2001.34"/><line class="d" x1="772.87" y1="1.34" x2="772.87" y2="2001.34"/><line class="d" x1="766.54" y1="1.34" x2="766.54" y2="2001.34"/><line class="d" x1="760.21" y1="1.34" x2="760.21" y2="2001.34"/><line class="d" x1="753.88" y1="1.34" x2="753.88" y2="2001.34"/><line class="d" x1="747.56" y1="1.34" x2="747.56" y2="2001.34"/><line class="d" x1="741.23" y1="1.34" x2="741.23" y2="2001.34"/><line class="d" x1="734.9" y1="1.34" x2="734.9" y2="2001.34"/><line class="d" x1="728.57" y1="1.34" x2="728.57" y2="2001.34"/><line class="d" x1="722.24" y1="1.34" x2="722.24" y2="2001.34"/><line class="d" x1="715.91" y1="1.34" x2="715.91" y2="2001.34"/><line class="d" x1="709.58" y1="1.34" x2="709.58" y2="2001.34"/><line class="d" x1="703.25" y1="1.34" x2="703.25" y2="2001.34"/><line class="d" x1="696.92" y1="1.34" x2="696.92" y2="2001.34"/><line class="d" x1="690.59" y1="1.34" x2="690.59" y2="2001.34"/><line class="d" x1="684.26" y1="1.34" x2="684.26" y2="2001.34"/><line class="d" x1="677.94" y1="1.34" x2="677.94" y2="2001.34"/><line class="d" x1="671.61" y1="1.34" x2="671.61" y2="2001.34"/><line class="d" x1="665.28" y1="1.34" x2="665.28" y2="2001.34"/><line class="d" x1="658.95" y1="1.34" x2="658.95" y2="2001.34"/><line class="d" x1="652.62" y1="1.34" x2="652.62" y2="2001.34"/><line class="d" x1="646.29" y1="1.34" x2="646.29" y2="2001.34"/><line class="d" x1="639.96" y1="1.34" x2="639.96" y2="2001.34"/><line class="d" x1="633.63" y1="1.34" x2="633.63" y2="2001.34"/><line class="d" x1="627.3" y1="1.34" x2="627.3" y2="2001.34"/><line class="d" x1="620.97" y1="1.34" x2="620.97" y2="2001.34"/><line class="d" x1="614.64" y1="1.34" x2="614.64" y2="2001.34"/><line class="d" x1="608.31" y1="1.34" x2="608.31" y2="2001.34"/><line class="d" x1="601.99" y1="1.34" x2="601.99" y2="2001.34"/><line class="d" x1="595.66" y1="1.34" x2="595.66" y2="2001.34"/><line class="d" x1="589.33" y1="1.34" x2="589.33" y2="2001.34"/><line class="d" x1="583" y1="1.34" x2="583" y2="2001.34"/><line class="d" x1="576.67" y1="1.34" x2="576.67" y2="2001.34"/><line class="d" x1="570.34" y1="1.34" x2="570.34" y2="2001.34"/><line class="d" x1="564.01" y1="1.34" x2="564.01" y2="2001.34"/><line class="d" x1="557.68" y1="1.34" x2="557.68" y2="2001.34"/><line class="d" x1="551.35" y1="1.34" x2="551.35" y2="2001.34"/><line class="d" x1="545.02" y1="1.34" x2="545.02" y2="2001.34"/><line class="d" x1="538.69" y1="1.34" x2="538.69" y2="2001.34"/><line class="d" x1="532.37" y1="1.34" x2="532.37" y2="2001.34"/><line class="d" x1="526.04" y1="1.34" x2="526.04" y2="2001.34"/><line class="d" x1="519.71" y1="1.34" x2="519.71" y2="2001.34"/><line class="d" x1="513.38" y1="1.34" x2="513.38" y2="2001.34"/><line class="d" x1="507.05" y1="1.34" x2="507.05" y2="2001.34"/><line class="d" x1="500.72" y1="1.34" x2="500.72" y2="2001.34"/><line class="d" x1="494.39" y1="1.34" x2="494.39" y2="2001.34"/><line class="d" x1="488.06" y1="1.34" x2="488.06" y2="2001.34"/><line class="d" x1="481.73" y1="1.34" x2="481.73" y2="2001.34"/><line class="d" x1="475.4" y1="1.34" x2="475.4" y2="2001.34"/><line class="d" x1="469.07" y1="1.34" x2="469.07" y2="2001.34"/><line class="d" x1="462.75" y1="1.34" x2="462.75" y2="2001.34"/><line class="d" x1="456.42" y1="1.34" x2="456.42" y2="2001.34"/><line class="d" x1="450.09" y1="1.34" x2="450.09" y2="2001.34"/><line class="d" x1="443.76" y1="1.34" x2="443.76" y2="2001.34"/><line class="d" x1="437.43" y1="1.34" x2="437.43" y2="2001.34"/><line class="d" x1="431.1" y1="1.34" x2="431.1" y2="2001.34"/><line class="d" x1="424.77" y1="1.34" x2="424.77" y2="2001.34"/><line class="d" x1="418.44" y1="1.34" x2="418.44" y2="2001.34"/><line class="d" x1="412.11" y1="1.34" x2="412.11" y2="2001.34"/><line class="d" x1="405.78" y1="1.34" x2="405.78" y2="2001.34"/><line class="d" x1="399.45" y1="1.34" x2="399.45" y2="2001.34"/><line class="d" x1="393.13" y1="1.34" x2="393.13" y2="2001.34"/><line class="d" x1="386.8" y1="1.34" x2="386.8" y2="2001.34"/><line class="d" x1="380.47" y1="1.34" x2="380.47" y2="2001.34"/><line class="d" x1="374.14" y1="1.34" x2="374.14" y2="2001.34"/><line class="d" x1="367.81" y1="1.34" x2="367.81" y2="2001.34"/><line class="d" x1="361.48" y1="1.34" x2="361.48" y2="2001.34"/><line class="d" x1="355.15" y1="1.34" x2="355.15" y2="2001.34"/><line class="d" x1="348.82" y1="1.34" x2="348.82" y2="2001.34"/><line class="d" x1="342.49" y1="1.34" x2="342.49" y2="2001.34"/><line class="d" x1="336.16" y1="1.34" x2="336.16" y2="2001.34"/><line class="d" x1="329.83" y1="1.34" x2="329.83" y2="2001.34"/><line class="d" x1="323.5" y1="1.34" x2="323.5" y2="2001.34"/><line class="d" x1="317.18" y1="1.34" x2="317.18" y2="2001.34"/><line class="d" x1="310.85" y1="1.34" x2="310.85" y2="2001.34"/><line class="d" x1="304.52" y1="1.34" x2="304.52" y2="2001.34"/><line class="d" x1="298.19" y1="1.34" x2="298.19" y2="2001.34"/><line class="d" x1="291.86" y1="1.34" x2="291.86" y2="2001.34"/><line class="d" x1="285.53" y1="1.34" x2="285.53" y2="2001.34"/><line class="d" x1="279.2" y1="1.34" x2="279.2" y2="2001.34"/><line class="d" x1="272.87" y1="1.34" x2="272.87" y2="2001.34"/><line class="d" x1="266.54" y1="1.34" x2="266.54" y2="2001.34"/><line class="d" x1="260.21" y1="1.34" x2="260.21" y2="2001.34"/><line class="d" x1="253.88" y1="1.34" x2="253.88" y2="2001.34"/><line class="d" x1="247.56" y1="1.34" x2="247.56" y2="2001.34"/><line class="d" x1="241.23" y1="1.34" x2="241.23" y2="2001.34"/><line class="d" x1="234.9" y1="1.34" x2="234.9" y2="2001.34"/><line class="d" x1="228.57" y1="1.34" x2="228.57" y2="2001.34"/><line class="d" x1="222.24" y1="1.34" x2="222.24" y2="2001.34"/><line class="d" x1="215.91" y1="1.34" x2="215.91" y2="2001.34"/><line class="d" x1="209.58" y1="1.34" x2="209.58" y2="2001.34"/><line class="d" x1="203.25" y1="1.34" x2="203.25" y2="2001.34"/><line class="d" x1="196.92" y1="1.34" x2="196.92" y2="2001.34"/><line class="d" x1="190.59" y1="1.34" x2="190.59" y2="2001.34"/><line class="d" x1="184.26" y1="1.34" x2="184.26" y2="2001.34"/><line class="d" x1="177.94" y1="1.34" x2="177.94" y2="2001.34"/><line class="d" x1="171.61" y1="1.34" x2="171.61" y2="2001.34"/><line class="d" x1="165.28" y1="1.34" x2="165.28" y2="2001.34"/><line class="d" x1="158.95" y1="1.34" x2="158.95" y2="2001.34"/><line class="d" x1="152.62" y1="1.34" x2="152.62" y2="2001.34"/><line class="d" x1="146.29" y1="1.34" x2="146.29" y2="2001.34"/><line class="d" x1="139.96" y1="1.34" x2="139.96" y2="2001.34"/><line class="d" x1="133.63" y1="1.34" x2="133.63" y2="2001.34"/><line class="d" x1="127.3" y1="1.34" x2="127.3" y2="2001.34"/><line class="d" x1="120.97" y1="1.34" x2="120.97" y2="2001.34"/><line class="d" x1="114.64" y1="1.34" x2="114.64" y2="2001.34"/><line class="d" x1="108.31" y1="1.34" x2="108.31" y2="2001.34"/><line class="d" x1="101.99" y1="1.34" x2="101.99" y2="2001.34"/><line class="d" x1="95.66" y1="1.34" x2="95.66" y2="2001.34"/><line class="d" x1="89.33" y1="1.34" x2="89.33" y2="2001.34"/><line class="d" x1="83" y1="1.34" x2="83" y2="2001.34"/><line class="d" x1="76.67" y1="1.34" x2="76.67" y2="2001.34"/><line class="d" x1="70.34" y1="1.34" x2="70.34" y2="2001.34"/><line class="d" x1="64.01" y1="1.34" x2="64.01" y2="2001.34"/><line class="d" x1="57.68" y1="1.34" x2="57.68" y2="2001.34"/><line class="d" x1="51.35" y1="1.34" x2="51.35" y2="2001.34"/><line class="d" x1="45.02" y1="1.34" x2="45.02" y2="2001.34"/><line class="d" x1="38.69" y1="1.34" x2="38.69" y2="2001.34"/><line class="d" x1="32.37" y1="1.34" x2="32.37" y2="2001.34"/><line class="d" x1="26.04" y1="1.34" x2="26.04" y2="2001.34"/><line class="d" x1="19.71" y1="1.34" x2="19.71" y2="2001.34"/><line class="d" x1="13.38" y1="1.34" x2="13.38" y2="2001.34"/><line class="d" x1="7.05" y1="1.34" x2="7.05" y2="2001.34"/></g></svg>